<svg xmlns="http://www.w3.org/2000/svg" width="646" height="492" viewBox="0 0 646 492" fill="none"><g style="mix-blend-mode:multiply"><path d="M126.094 102.973C115.303 96.7451 97.8212 96.7451 87.0302 102.973C76.2393 109.201 76.2393 119.302 87.0302 125.539C97.8212 131.766 115.303 131.766 126.094 125.539C136.885 119.311 136.876 109.209 126.094 102.973ZM96.2496 120.207C90.5511 116.913 90.5511 111.581 96.2496 108.296C101.948 105.011 111.185 105.002 116.874 108.296C122.564 111.59 122.573 116.922 116.874 120.207C111.176 123.501 101.939 123.501 96.2496 120.207Z" fill="#E8ECF7"/></g><path d="M136.446 353.383C134.54 352.285 131.458 352.285 129.562 353.383C127.665 354.481 127.665 356.264 129.562 357.362C131.467 358.46 134.549 358.46 136.446 357.362C138.342 356.264 138.342 354.481 136.446 353.383Z" fill="white"/><path d="M119.605 363.115C117.708 362.017 114.618 362.017 112.721 363.115C110.825 364.213 110.825 365.996 112.721 367.094C114.627 368.192 117.708 368.192 119.605 367.094C121.51 365.996 121.51 364.213 119.605 363.115Z" fill="white"/><path d="M102.756 372.848C100.85 371.75 97.7684 371.75 95.8719 372.848C93.9665 373.946 93.9665 375.729 95.8719 376.827C97.7772 377.925 100.859 377.925 102.756 376.827C104.652 375.729 104.652 373.946 102.756 372.848Z" fill="white"/><path d="M85.915 382.571C84.0097 381.473 80.9278 381.473 79.0313 382.571C77.1348 383.669 77.1348 385.452 79.0313 386.55C80.9366 387.648 84.0185 387.648 85.915 386.55C87.8116 385.452 87.8116 383.669 85.915 382.571Z" fill="white"/><path d="M69.0657 392.304C67.1604 391.206 64.0785 391.206 62.1819 392.304C60.2854 393.402 60.2854 395.185 62.1819 396.283C64.0873 397.381 67.1691 397.381 69.0657 396.283C70.971 395.185 70.971 393.402 69.0657 392.304Z" fill="white"/><g style="mix-blend-mode:multiply"><path d="M36.561 323.878L51.6983 332.618C54.0075 333.953 53.7177 336.28 51.0485 337.818L37.202 345.811C34.5416 347.348 30.5026 347.515 28.2022 346.18L13.065 337.44C10.7558 336.105 11.0455 333.777 13.7147 332.24L27.5612 324.247C30.2305 322.709 34.2606 322.543 36.561 323.878Z" fill="#E8ECF7"/></g><path style="mix-blend-mode:multiply" d="M146.561 297.386C143.61 295.682 139.475 295.084 135.673 295.576C131.88 295.084 127.736 295.682 124.786 297.386L107.532 307.347C104.09 309.332 103.247 312.257 104.977 314.707C104.011 315.076 103.168 315.463 102.475 315.867L85.2215 325.828C82.8157 327.216 82.7279 328.472 84.5015 329.35H84.484L89.4975 332.196C89.5326 332.222 89.5765 332.24 89.6204 332.266L89.7082 332.31C91.2711 333.127 94.4057 333.628 98.831 333.628C107.971 333.628 119.131 331.485 123.697 328.841L140.95 318.88C143.347 317.492 143.444 316.245 141.688 315.375H141.705L137.201 312.924C137.087 312.819 136.955 312.713 136.797 312.608L146.561 306.969C151.135 304.334 151.135 300.038 146.561 297.394V297.386ZM111.044 325.837C108.718 327.18 103.344 328.287 98.55 328.472L115.145 318.888C116.242 318.924 117.349 318.871 118.429 318.73C120.018 318.941 121.66 318.959 123.258 318.783L111.053 325.837H111.044ZM137.693 304.843L126.866 311.097C125.918 311.106 124.952 311.141 123.969 311.194C123.679 311.194 123.337 311.211 122.924 311.247C120.589 311.457 117.27 311.809 114.504 312.239C114.46 311.238 115.092 310.236 116.4 309.472L133.654 299.511C134.251 299.169 134.944 298.905 135.673 298.73C136.402 298.914 137.095 299.169 137.693 299.511C140.239 300.978 140.239 303.376 137.693 304.843Z" fill="url(#paint0_linear_15_37)"/><path d="M106.04 308.207C101.465 305.563 101.465 301.268 106.04 298.633L123.293 288.672C127.867 286.028 135.295 286.028 139.87 288.672C144.436 291.316 144.436 295.611 139.87 298.246L122.617 308.207C118.042 310.851 110.605 310.851 106.04 308.207ZM109.71 300.75C107.163 302.217 107.163 304.615 109.71 306.082C112.256 307.548 116.4 307.548 118.938 306.082L136.191 296.121C138.737 294.654 138.737 292.256 136.191 290.789C133.645 289.322 129.5 289.322 126.963 290.789L109.71 300.75Z" fill="#F6F6FB"/><path d="M109.71 300.75L126.963 290.789C129.509 289.322 133.654 289.322 136.191 290.789C138.439 292.089 138.702 294.109 136.964 295.576C136.735 295.383 136.481 295.198 136.191 295.032C133.645 293.565 129.5 293.565 126.963 295.032L109.71 304.992C109.42 305.159 109.156 305.344 108.937 305.537C107.207 304.07 107.462 302.05 109.71 300.75Z" fill="url(#paint1_linear_15_37)"/><path d="M106.04 308.207C110.614 310.851 118.051 310.851 122.617 308.207L139.87 298.246C142.144 296.938 143.286 295.207 143.294 293.486V297.57H143.286C143.347 299.353 142.214 301.145 139.87 302.498L122.617 312.459C118.051 315.103 110.605 315.103 106.04 312.459C103.704 311.106 102.571 309.332 102.624 307.557H102.615V303.429C102.615 305.159 103.757 306.899 106.04 308.216V308.207Z" fill="url(#paint2_linear_15_37)"/><path d="M86.8809 307.575L104.134 297.614C106.461 296.27 108.568 296.174 110.07 297.096L113.415 299.028H113.406C111.931 298.317 109.964 298.484 107.804 299.731L90.5511 309.692C85.9765 312.336 82.2625 318.774 82.2625 324.053C82.2625 326.627 83.1493 328.454 84.5892 329.341L81.0947 327.33C79.5581 326.478 78.6011 324.607 78.6011 321.928C78.6011 316.649 82.3239 310.201 86.8897 307.566L86.8809 307.575Z" fill="url(#paint3_linear_15_37)"/><path d="M108.691 305.309C108.972 305.581 109.306 305.844 109.71 306.082C110.482 306.53 111.413 306.828 112.396 306.995C112.396 306.872 112.414 306.758 112.414 306.635C112.414 304.035 110.79 302.805 108.656 303.569C108.709 303.859 108.735 304.176 108.735 304.518C108.735 304.773 108.718 305.036 108.682 305.309H108.691ZM86.0205 322.876C86.4244 325.107 88.3034 325.898 90.5511 324.598L102.264 317.834L107.796 314.637C108.235 314.382 108.656 314.066 109.06 313.697C107.971 313.381 106.944 312.968 106.04 312.441C105.697 312.248 105.399 312.037 105.109 311.826C104.793 312.09 104.468 312.318 104.134 312.52L86.881 322.481C86.5912 322.648 86.3015 322.78 86.0205 322.876Z" fill="#FD9009"/><path d="M90.5511 309.692L107.804 299.731C112.379 297.087 116.093 299.239 116.093 304.518C116.093 305.344 115.988 306.205 115.821 307.074C114.688 307.224 113.52 307.197 112.405 306.995C112.405 306.872 112.423 306.758 112.423 306.635C112.423 303.692 110.351 302.498 107.804 303.965L90.5511 313.926C88.0048 315.393 85.9326 318.985 85.9326 321.928C85.9326 324.87 88.0048 326.065 90.5511 324.598L107.804 314.637C108.243 314.382 108.665 314.066 109.069 313.697C110.193 314.022 111.378 314.233 112.598 314.338C111.246 316.236 109.596 317.843 107.813 318.88L90.5598 328.841C85.9853 331.485 82.2712 329.333 82.2712 324.053C82.2712 318.774 85.9941 312.327 90.5598 309.692H90.5511Z" fill="#EF4E16"/><path style="mix-blend-mode:multiply" d="M630.504 303.042L624.27 299.441C620.626 297.342 620.626 293.916 624.27 291.808C627.914 289.7 633.84 289.7 637.484 291.808L643.718 295.409C647.362 297.517 647.362 300.934 643.718 303.042C640.075 305.142 634.148 305.142 630.504 303.042ZM627.817 297.394L634.051 300.996C635.737 301.971 638.477 301.971 640.162 300.996C641.848 300.021 641.848 298.44 640.162 297.465L633.928 293.863C632.242 292.888 629.503 292.888 627.817 293.863C626.131 294.838 626.131 296.419 627.817 297.394Z" fill="url(#paint4_linear_15_37)"/><path d="M625.886 299.204L619.652 295.603C616.008 293.494 616.008 290.078 619.652 287.969C623.295 285.87 629.222 285.861 632.866 287.969L639.1 291.571C642.744 293.679 642.744 297.096 639.1 299.204C635.456 301.303 629.529 301.312 625.886 299.204ZM623.199 293.556L629.433 297.157C631.119 298.132 633.858 298.132 635.544 297.157C637.23 296.182 637.23 294.601 635.544 293.626L629.31 290.025C627.624 289.05 624.885 289.05 623.199 290.025C621.513 291 621.513 292.581 623.199 293.556Z" fill="#F6F6FB"/><path d="M623.199 290.025C624.885 289.05 627.624 289.05 629.31 290.025L635.544 293.626C637.23 294.601 637.23 296.182 635.544 297.157C635.456 297.21 635.351 297.245 635.254 297.298L629.31 293.863C627.712 292.941 625.183 292.906 623.488 293.723L623.199 293.556C621.513 292.581 621.513 291 623.199 290.025Z" fill="url(#paint5_linear_15_37)"/><path d="M619.652 295.603L625.886 299.204C629.529 301.312 635.456 301.303 639.1 299.204C640.9 298.167 641.804 296.797 641.831 295.436V299.169C641.857 300.574 640.953 301.98 639.1 303.051C635.456 305.151 629.529 305.151 625.886 303.051L619.652 299.45C617.834 298.405 616.93 297.026 616.921 295.646V291.808C616.921 293.187 617.834 294.566 619.652 295.62V295.603Z" fill="url(#paint6_linear_15_37)"/><path style="mix-blend-mode:multiply" d="M431.394 465.622H424.747L431.394 469.461L427.846 471.516H434.493L438.04 469.461L431.394 465.622Z" fill="url(#paint7_linear_15_37)"/><path d="M412.674 462.75L427.846 471.516V467.678L412.674 458.912V462.75Z" fill="#5E156B"/><path d="M427.846 471.516L431.393 469.461V465.622L427.846 467.678V471.516Z" fill="#3A0C44"/><path d="M410.11 464.235L412.674 462.75V458.912L410.11 460.396V464.235Z" fill="#3A0C44"/><path d="M406.563 462.188L410.11 464.235V460.396L406.563 458.349V462.188Z" fill="#5E156B"/><path d="M431.393 465.622L416.23 456.865L412.683 454.818L409.127 456.865L406.563 458.349L410.11 460.396L412.674 458.912L427.846 467.678L431.393 465.622Z" fill="#792787"/><path style="mix-blend-mode:multiply" d="M410.11 464.235H415.238L412.674 458.912V462.75L410.11 464.235Z" fill="url(#paint8_linear_15_37)"/><path style="mix-blend-mode:multiply" d="M147.316 448.362L141.082 444.761C137.438 442.661 137.438 439.236 141.082 437.128C144.726 435.02 150.652 435.02 154.296 437.128L160.53 440.729C164.174 442.837 164.174 446.254 160.53 448.362C156.886 450.462 150.96 450.462 147.316 448.362ZM144.62 442.705L150.854 446.307C152.54 447.282 155.279 447.282 156.965 446.307C158.651 445.332 158.651 443.751 156.965 442.776L150.731 439.174C149.045 438.199 146.306 438.199 144.62 439.174C142.934 440.149 142.934 441.73 144.62 442.705Z" fill="url(#paint9_linear_15_37)"/><path d="M142.697 444.524L136.463 440.922C132.82 438.814 132.82 435.397 136.463 433.289C140.107 431.19 146.034 431.181 149.678 433.289L155.912 436.89C159.556 438.999 159.556 442.416 155.912 444.524C152.268 446.623 146.341 446.632 142.697 444.524ZM140.011 438.876L146.245 442.477C147.93 443.452 150.67 443.452 152.356 442.477C154.041 441.502 154.041 439.921 152.356 438.946L146.122 435.345C144.436 434.37 141.696 434.37 140.011 435.345C138.325 436.32 138.325 437.901 140.011 438.876Z" fill="#FFAD02"/><path d="M140.011 435.345C141.697 434.37 144.436 434.37 146.122 435.345L152.356 438.946C154.042 439.921 154.042 441.502 152.356 442.477C152.268 442.53 152.163 442.565 152.066 442.618L146.122 439.183C144.524 438.261 141.995 438.226 140.3 439.043L140.011 438.876C138.325 437.901 138.325 436.32 140.011 435.345Z" fill="url(#paint10_linear_15_37)"/><path d="M136.463 440.922L142.697 444.524C146.341 446.632 152.268 446.623 155.912 444.524C157.712 443.487 158.616 442.117 158.642 440.755V444.488C158.669 445.894 157.764 447.299 155.912 448.362C152.268 450.461 146.341 450.461 142.697 448.362L136.463 444.761C134.646 443.715 133.741 442.336 133.733 440.957V437.119C133.733 438.498 134.646 439.877 136.463 440.931V440.922Z" fill="url(#paint11_linear_15_37)"/><path style="mix-blend-mode:multiply" d="M442.483 125.872H435.836L442.483 129.711L438.936 131.757H445.574L449.13 129.711L442.483 125.872Z" fill="url(#paint12_linear_15_37)"/><path d="M423.763 123L438.936 131.757V127.919L423.763 119.161V123Z" fill="#FC780B"/><path d="M438.936 131.757L442.483 129.711V125.872L438.936 127.919V131.757Z" fill="#EF4E16"/><path d="M421.199 124.484L423.763 123V119.161L421.199 120.646V124.484Z" fill="#EF4E16"/><path d="M417.652 122.429L421.199 124.484V120.646L417.652 118.591V122.429Z" fill="#FC780B"/><path d="M442.483 125.872L427.31 117.115L423.763 115.059L420.216 117.115L417.652 118.591L421.199 120.646L423.763 119.161L438.936 127.919L442.483 125.872Z" fill="#FFAD02"/><path style="mix-blend-mode:multiply" d="M421.199 124.484H426.327L423.763 119.161V123L421.199 124.484Z" fill="url(#paint13_linear_15_37)"/><path style="mix-blend-mode:multiply" d="M143.655 192.867L155.49 199.709L143.655 206.543L176.546 199.709L143.655 192.867Z" fill="url(#paint14_linear_15_37)"/><path d="M143.654 179.023V206.543L131.81 199.709L143.654 179.023Z" fill="#6B1975"/><path d="M143.655 179.023V206.543L155.49 199.709L143.655 179.023Z" fill="#3A0C44"/><path style="mix-blend-mode:multiply" d="M285.553 313.785C282.093 313.118 278.186 312.705 274.665 312.705H210.569C207.048 312.705 204.572 313.118 203.422 313.785C202.272 314.453 202.439 315.375 204.195 316.385V356.527C202.43 357.546 202.263 358.468 203.422 359.127C204.581 359.795 207.048 360.208 210.569 360.208H220.359V365.864C218.594 366.883 218.427 367.806 219.586 368.464C220.737 369.132 223.213 369.545 226.734 369.545H236.524V375.202C234.759 376.221 234.592 377.143 235.751 377.802C236.91 378.469 239.377 378.882 242.898 378.882H306.985C310.506 378.882 314.414 378.469 317.873 377.802C321.332 377.134 324.353 376.212 326.118 375.202V335.06C312.473 324.317 289.003 314.453 285.544 313.785H285.553Z" fill="url(#paint15_linear_15_37)"/><path style="mix-blend-mode:multiply" d="M503.989 275.303H596.972V223.549H503.989V275.303Z" fill="url(#paint16_linear_15_37)"/><path style="mix-blend-mode:multiply" d="M621.539 273.072H527.379V324.826H621.539V273.072Z" fill="url(#paint17_linear_15_37)"/><path style="mix-blend-mode:multiply" d="M565.916 295.971H467.103V347.726H565.916V295.971Z" fill="url(#paint18_linear_15_37)"/><path style="mix-blend-mode:multiply" d="M532.463 347.884H433.65V376.01H532.463V347.884Z" fill="url(#paint19_linear_15_37)"/><path style="mix-blend-mode:multiply" d="M493.452 376.141H394.639V412.146H493.452V376.141Z" fill="url(#paint20_linear_15_37)"/><path style="mix-blend-mode:multiply" d="M432.939 386.673H334.125V431.234H432.939V386.673Z" fill="url(#paint21_linear_15_37)"/><path style="mix-blend-mode:multiply" d="M278.318 310.746H179.504V355.306H278.318V310.746Z" fill="url(#paint22_linear_15_37)"/><path style="mix-blend-mode:multiply" d="M354.531 367.217V358.029H340.71V349.07H241.897V393.63H255.726V402.598H273.199V411.777H372.003V367.217H354.531Z" fill="url(#paint23_linear_15_37)"/><path style="mix-blend-mode:multiply" d="M537.968 204.953H439.155V256.707H537.968V204.953Z" fill="url(#paint24_linear_15_37)"/><path d="M439.155 204.953L394.349 179.076L439.155 153.208L483.952 179.076L439.155 204.953Z" fill="#F6F6FB"/><path d="M439.155 256.707L394.349 230.83V179.076L439.155 204.953V256.707Z" fill="#CED3F8"/><path d="M439.155 256.707L483.952 230.83V179.076L439.155 204.953V256.707Z" fill="#BBC0E6"/><path d="M205.362 264.543L160.565 238.665L205.362 212.788L250.168 238.665L205.362 264.543Z" fill="white"/><path d="M205.362 316.288L160.565 290.42V238.665L205.362 264.543V316.288Z" fill="#CED3F8"/><path d="M205.362 316.288L250.168 290.42V238.665L205.362 264.543V316.288Z" fill="#BBC0E6"/><path d="M497.605 225.288L465.557 206.78C463.793 205.761 462.915 204.435 462.915 203.1C462.915 201.765 463.793 200.429 465.557 199.419L497.605 180.912C499.362 179.893 501.671 179.383 503.98 179.383C506.289 179.383 508.598 179.893 510.354 180.912L542.403 199.419C544.167 200.438 545.045 201.773 545.045 203.1C545.045 204.426 544.167 205.77 542.403 206.78L510.354 225.288C508.59 226.307 506.289 226.816 503.98 226.816C501.671 226.816 499.362 226.307 497.605 225.288Z" fill="#F6F6FB"/><path d="M542.403 206.78L510.354 225.288C508.59 226.307 506.289 226.816 503.98 226.816C501.671 226.816 499.362 226.307 497.605 225.288L465.557 206.78C463.793 205.761 462.915 204.435 462.915 203.1V251.595C462.915 252.93 463.793 254.266 465.557 255.276L497.605 273.783C499.37 274.802 501.671 275.312 503.98 275.312C506.289 275.312 508.598 274.802 510.354 273.783L542.403 255.276C544.167 254.257 545.045 252.922 545.045 251.595V203.1C545.045 204.435 544.167 205.77 542.403 206.78Z" fill="url(#paint25_linear_15_37)"/><path d="M503.98 198.523L511.9 203.091L503.98 207.667L496.06 203.091L503.98 198.523Z" fill="#DAE0F5"/><path d="M516.782 205.911L524.701 210.487L516.782 215.063L508.862 210.487L516.782 205.911Z" fill="#DAE0F5"/><path d="M529.583 198.523L537.503 203.091L529.583 207.667L521.664 203.091L529.583 198.523Z" fill="#DAE0F5"/><path d="M503.98 213.307L511.9 217.883L503.98 222.451L496.06 217.883L503.98 213.307Z" fill="#DAE0F5"/><path d="M491.187 191.127L499.098 195.704L491.187 200.271L483.267 195.704L491.187 191.127Z" fill="#DAE0F5"/><path d="M516.782 191.127L524.701 195.704L516.782 200.271L508.862 195.704L516.782 191.127Z" fill="#DAE0F5"/><path d="M503.98 183.731L511.9 188.308L503.98 192.884L496.06 188.308L503.98 183.731Z" fill="#DAE0F5"/><path d="M478.385 198.523L486.305 203.091L478.385 207.667L470.466 203.091L478.385 198.523Z" fill="#DAE0F5"/><path d="M491.187 205.911L499.098 210.487L491.187 215.063L483.267 210.487L491.187 205.911Z" fill="#DAE0F5"/><path d="M520.645 314.733L486.815 295.198C484.953 294.118 484.031 292.712 484.031 291.307C484.031 289.902 484.962 288.496 486.815 287.416L520.645 267.872C522.506 266.8 524.939 266.264 527.38 266.264C529.82 266.264 532.253 266.8 534.114 267.872L567.945 287.416C569.806 288.487 570.728 289.893 570.728 291.298C570.728 292.704 569.797 294.118 567.945 295.189L534.114 314.725C532.253 315.796 529.82 316.341 527.38 316.341C524.939 316.341 522.506 315.805 520.645 314.725V314.733Z" fill="#F6F6FB"/><path style="mix-blend-mode:multiply" d="M534.869 314.294L567.945 295.189C569.806 294.109 570.728 292.704 570.728 291.298C570.728 289.893 569.797 288.487 567.945 287.416L534.114 267.872C533.236 267.371 532.235 266.985 531.164 266.721L527.388 266.264V314.294H534.878H534.869Z" fill="url(#paint26_linear_15_37)"/><path d="M555.547 282.488L533.561 269.787C531.857 268.803 529.618 268.311 527.379 268.311C525.14 268.311 522.901 268.803 521.198 269.787L499.212 282.488H487.57V291.298C487.57 292.589 488.43 293.889 490.133 294.864L521.198 312.81C522.91 313.794 525.14 314.285 527.379 314.285C529.618 314.285 531.849 313.794 533.561 312.81L564.625 294.864C566.329 293.881 567.189 292.589 567.189 291.298V282.488H555.547Z" fill="url(#paint27_linear_15_37)"/><path d="M567.945 295.198L534.114 314.733C532.253 315.805 529.82 316.35 527.38 316.35C524.939 316.35 522.506 315.814 520.645 314.733L486.815 295.198C484.953 294.118 484.031 292.712 484.031 291.307V299.783C484.031 301.189 484.962 302.594 486.815 303.675L520.645 323.21C522.506 324.281 524.939 324.817 527.38 324.817C529.82 324.817 532.253 324.281 534.114 323.21L567.945 303.675C569.806 302.603 570.728 301.198 570.728 299.783V291.307C570.728 292.712 569.797 294.127 567.945 295.198Z" fill="url(#paint28_linear_15_37)"/><path d="M520.645 293.371L486.815 273.836C484.953 272.764 484.031 271.35 484.031 269.945C484.031 268.539 484.962 267.134 486.815 266.062L520.645 246.518C522.506 245.447 524.939 244.911 527.38 244.911C529.82 244.911 532.253 245.447 534.114 246.518L567.945 266.062C569.806 267.134 570.728 268.548 570.728 269.945C570.728 271.341 569.797 272.764 567.945 273.836L534.114 293.371C532.253 294.443 529.82 294.987 527.38 294.987C524.939 294.987 522.506 294.452 520.645 293.371Z" fill="#F6F6FB"/><path style="mix-blend-mode:multiply" d="M534.869 292.941L567.945 273.836C569.806 272.764 570.728 271.35 570.728 269.945C570.728 268.539 569.797 267.134 567.945 266.062L534.114 246.518C533.236 246.018 532.235 245.631 531.164 245.368L527.388 244.911V292.941H534.878H534.869Z" fill="url(#paint29_linear_15_37)"/><path d="M555.547 261.135L533.561 248.442C531.857 247.458 529.618 246.966 527.379 246.966C525.14 246.966 522.901 247.458 521.198 248.442L499.212 261.135H487.57V269.945C487.57 271.236 488.43 272.527 490.133 273.52L521.198 291.465C522.91 292.449 525.14 292.941 527.379 292.941C529.618 292.941 531.849 292.449 533.561 291.465L564.625 273.52C566.329 272.536 567.189 271.245 567.189 269.945V261.135H555.547Z" fill="url(#paint30_linear_15_37)"/><path d="M567.945 273.836L534.114 293.371C532.253 294.443 529.82 294.987 527.38 294.987C524.939 294.987 522.506 294.452 520.645 293.371L486.815 273.836C484.953 272.764 484.031 271.35 484.031 269.945V278.421C484.031 279.827 484.962 281.232 486.815 282.312L520.645 301.856C522.506 302.928 524.939 303.464 527.38 303.464C529.82 303.464 532.253 302.928 534.114 301.856L567.945 282.312C569.806 281.241 570.728 279.835 570.728 278.421V269.945C570.728 271.35 569.797 272.764 567.945 273.836Z" fill="url(#paint31_linear_15_37)"/><path d="M520.645 272.018L486.815 252.474C484.953 251.402 484.031 249.988 484.031 248.582C484.031 247.177 484.962 245.772 486.815 244.691L520.645 225.156C522.506 224.084 524.939 223.549 527.38 223.549C529.82 223.549 532.253 224.084 534.114 225.156L567.945 244.691C569.806 245.772 570.728 247.177 570.728 248.582C570.728 249.988 569.797 251.402 567.945 252.474L534.114 272.018C532.253 273.089 529.82 273.625 527.38 273.625C524.939 273.625 522.506 273.089 520.645 272.018Z" fill="#F6F6FB"/><path d="M567.945 252.482L534.114 272.027C532.253 273.098 529.82 273.634 527.38 273.634C524.939 273.634 522.506 273.098 520.645 272.027L486.815 252.482C484.953 251.411 484.031 249.997 484.031 248.591V257.068C484.031 258.473 484.962 259.878 486.815 260.95L520.645 280.494C522.506 281.566 524.939 282.102 527.38 282.102C529.82 282.102 532.253 281.566 534.114 280.494L567.945 260.95C569.806 259.878 570.728 258.464 570.728 257.068V248.591C570.728 249.997 569.797 251.411 567.945 252.482Z" fill="url(#paint32_linear_15_37)"/><path d="M467.103 295.971L422.306 270.094L467.103 244.217L511.9 270.094L467.103 295.971Z" fill="#F6F6FB"/><path d="M467.103 347.717L422.306 321.84V270.094L467.103 295.971V347.717Z" fill="#CED3F8"/><path d="M467.103 347.717L511.909 321.84V270.094L467.103 295.971V347.717Z" fill="#B4BADD"/><path d="M214.52 335.938L182.472 354.445C180.707 355.464 179.118 355.561 177.959 354.893C176.809 354.226 176.089 352.794 176.089 350.765V313.75C176.089 311.712 176.8 309.463 177.959 307.461C179.109 305.458 180.707 303.719 182.472 302.7L214.52 284.192C216.285 283.173 217.874 283.077 219.024 283.744C220.183 284.412 220.894 285.835 220.894 287.873V324.888C220.894 326.926 220.183 329.174 219.024 331.177C217.874 333.18 216.276 334.919 214.52 335.938Z" fill="#BBC0E6"/><path d="M176.097 350.756V313.741C176.097 311.703 176.809 309.455 177.968 307.452C179.118 305.449 180.716 303.71 182.481 302.691L214.529 284.184C216.294 283.165 217.883 283.068 219.033 283.736L177.055 259.492C175.904 258.825 174.306 258.921 172.541 259.94L140.493 278.448C138.737 279.467 137.139 281.215 135.98 283.209C134.83 285.211 134.11 287.46 134.11 289.498V326.513C134.11 328.551 134.821 329.974 135.98 330.641L177.959 354.885C176.809 354.217 176.089 352.785 176.089 350.756H176.097Z" fill="url(#paint33_linear_15_37)"/><g style="mix-blend-mode:multiply"><path d="M171.33 303.622C172.489 301.619 174.078 299.88 175.843 298.861L207.891 280.354C209.656 279.335 211.245 279.238 212.395 279.906L214.406 281.065C213.256 280.398 211.658 280.494 209.902 281.513L177.854 300.021C176.089 301.04 174.5 302.788 173.341 304.782C172.19 306.784 171.47 309.033 171.47 311.071V348.086C171.47 350.124 172.182 351.547 173.341 352.214L171.33 351.055C170.18 350.387 169.46 348.956 169.46 346.926V309.911C169.46 307.882 170.171 305.625 171.33 303.622Z" fill="#DAE0F5"/><path d="M165.948 300.513C167.098 298.51 168.696 296.771 170.461 295.752L202.509 277.244C204.265 276.225 205.863 276.129 207.013 276.796L209.024 277.956C207.873 277.288 206.275 277.385 204.519 278.404L172.471 296.911C170.707 297.93 169.117 299.678 167.958 301.672C166.808 303.675 166.088 305.924 166.088 307.961V344.976C166.088 347.006 166.799 348.437 167.958 349.105L165.948 347.945C164.797 347.278 164.077 345.846 164.077 343.817V306.802C164.077 304.764 164.789 302.515 165.948 300.513Z" fill="#DAE0F5"/><path d="M160.556 297.394C161.707 295.392 163.305 293.653 165.07 292.634L197.118 274.126C198.874 273.107 200.472 273.011 201.631 273.678L203.641 274.838C202.491 274.17 200.893 274.267 199.137 275.286L167.089 293.793C165.333 294.812 163.735 296.551 162.576 298.554C161.426 300.557 160.706 302.805 160.706 304.843V341.858C160.706 343.896 161.417 345.319 162.576 345.987L160.565 344.827C159.415 344.16 158.695 342.728 158.695 340.699V303.684C158.695 301.646 159.406 299.397 160.565 297.394H160.556Z" fill="#DAE0F5"/><path d="M155.165 294.285C156.316 292.282 157.914 290.543 159.678 289.524L191.727 271.017C193.483 269.998 195.081 269.901 196.24 270.569L198.25 271.728C197.091 271.061 195.502 271.157 193.737 272.176L161.689 290.684C159.924 291.703 158.335 293.442 157.176 295.444C156.026 297.447 155.306 299.696 155.306 301.734V338.749C155.306 340.787 156.017 342.21 157.176 342.877L155.165 341.718C154.015 341.05 153.295 339.627 153.295 337.589V300.574C153.295 298.536 154.006 296.288 155.165 294.285Z" fill="#DAE0F5"/><path d="M149.783 291.175C150.933 289.173 152.531 287.434 154.296 286.415L186.344 267.907C188.109 266.888 189.698 266.792 190.857 267.459L192.868 268.619C191.709 267.951 190.12 268.048 188.355 269.067L156.307 287.574C154.542 288.593 152.953 290.341 151.794 292.335C150.644 294.338 149.924 296.586 149.924 298.624V335.639C149.924 337.677 150.635 339.1 151.794 339.768L149.783 338.608C148.633 337.941 147.913 336.509 147.913 334.48V297.465C147.913 295.427 148.624 293.178 149.783 291.175Z" fill="#DAE0F5"/><path d="M144.392 288.066C145.542 286.063 147.14 284.324 148.905 283.305L180.953 264.798C182.718 263.779 184.307 263.682 185.466 264.35L187.477 265.509C186.318 264.842 184.729 264.938 182.964 265.957L150.916 284.465C149.151 285.484 147.562 287.232 146.403 289.225C145.252 291.228 144.532 293.477 144.532 295.515V332.53C144.532 334.568 145.244 335.991 146.403 336.658L144.392 335.499C143.242 334.831 142.522 333.399 142.522 331.37V294.355C142.522 292.317 143.233 290.069 144.392 288.066Z" fill="#DAE0F5"/><path d="M139.001 284.948C140.151 282.945 141.749 281.206 143.514 280.187L175.562 261.679C177.327 260.66 178.916 260.564 180.075 261.231L182.086 262.391C180.936 261.723 179.337 261.82 177.573 262.839L145.525 281.346C143.76 282.365 142.171 284.113 141.012 286.107C139.861 288.11 139.141 290.359 139.141 292.396V329.412C139.141 331.441 139.853 332.872 141.012 333.54L139.001 332.38C137.851 331.713 137.131 330.281 137.131 328.252V291.237C137.131 289.199 137.842 286.95 139.001 284.948Z" fill="#DAE0F5"/></g><path d="M246.902 322.068C246.515 321.401 245.989 320.821 245.409 320.487L237.173 315.726C236.594 315.392 236.058 315.357 235.68 315.577L193.702 339.82C194.088 339.601 194.615 339.627 195.195 339.97L203.43 344.73C204.01 345.064 204.546 345.644 204.923 346.312C205.309 346.979 205.547 347.726 205.547 348.393V357.915C205.547 358.591 205.309 359.057 204.923 359.285L246.902 335.042C247.288 334.822 247.525 334.348 247.525 333.672V324.15C247.525 323.474 247.288 322.727 246.902 322.068Z" fill="url(#paint34_linear_15_37)"/><path d="M246.902 303.394C246.515 302.726 245.989 302.146 245.409 301.813L237.173 297.052C236.594 296.718 236.058 296.683 235.68 296.903L193.702 321.146C194.088 320.926 194.615 320.953 195.195 321.295L203.43 326.056C204.01 326.39 204.546 326.97 204.923 327.637C205.309 328.305 205.547 329.051 205.547 329.728V339.249C205.547 339.926 205.309 340.391 204.923 340.62L246.902 316.376C247.288 316.157 247.525 315.682 247.525 315.006V305.484C247.525 304.808 247.288 304.061 246.902 303.403V303.394Z" fill="url(#paint35_linear_15_37)"/><path d="M263.057 331.405C262.671 330.738 262.144 330.158 261.565 329.824L253.329 325.063C252.749 324.73 252.214 324.695 251.836 324.923L209.858 349.166C210.244 348.947 210.771 348.973 211.35 349.316L219.586 354.076C220.166 354.41 220.701 354.99 221.079 355.658C221.465 356.325 221.702 357.072 221.702 357.739V367.252C221.702 367.929 221.465 368.394 221.079 368.622L263.057 344.379C263.444 344.16 263.681 343.685 263.681 343.009V333.487C263.681 332.811 263.444 332.064 263.057 331.405Z" fill="url(#paint36_linear_15_37)"/><path d="M279.222 340.743C278.836 340.075 278.309 339.495 277.729 339.162L269.493 334.401C268.914 334.067 268.378 334.032 268.001 334.26L226.022 358.504C226.409 358.284 226.935 358.31 227.515 358.653L235.751 363.414C236.33 363.747 236.866 364.327 237.243 364.995C237.63 365.662 237.867 366.409 237.867 367.077V376.598C237.867 377.275 237.63 377.74 237.243 377.968L279.222 353.725C279.608 353.506 279.845 353.031 279.845 352.355V342.833C279.845 342.157 279.608 341.41 279.222 340.751V340.743Z" fill="url(#paint37_linear_15_37)"/><path d="M263.057 312.731C262.671 312.063 262.144 311.484 261.565 311.15L253.329 306.389C252.749 306.055 252.214 306.02 251.836 306.24L209.858 330.483C210.244 330.263 210.771 330.29 211.35 330.624L219.586 335.384C220.166 335.718 220.701 336.298 221.079 336.966C221.465 337.633 221.702 338.38 221.702 339.047V348.569C221.702 349.245 221.465 349.711 221.079 349.939L263.057 325.696C263.444 325.476 263.681 325.002 263.681 324.326V314.804C263.681 314.136 263.444 313.381 263.057 312.722V312.731Z" fill="url(#paint38_linear_15_37)"/><path d="M263.057 312.731C262.671 312.063 262.144 311.484 261.565 311.15L253.329 306.389C252.749 306.055 252.214 306.02 251.836 306.24L209.858 330.483C210.244 330.263 210.771 330.29 211.35 330.624L219.586 335.384C220.166 335.718 220.701 336.298 221.079 336.966C221.465 337.633 221.702 338.38 221.702 339.047V348.569C221.702 349.245 221.465 349.711 221.079 349.939L263.057 325.696C263.444 325.476 263.681 325.002 263.681 324.326V314.804C263.681 314.136 263.444 313.381 263.057 312.722V312.731Z" fill="url(#paint39_linear_15_37)"/><path d="M279.222 322.068C278.836 321.401 278.309 320.821 277.729 320.487L269.493 315.726C268.914 315.392 268.378 315.357 268.001 315.577L226.022 339.82C226.409 339.601 226.935 339.627 227.515 339.97L235.751 344.73C236.33 345.064 236.866 345.644 237.243 346.312C237.63 346.979 237.867 347.726 237.867 348.393V357.915C237.867 358.591 237.63 359.057 237.243 359.285L279.222 335.042C279.608 334.822 279.845 334.348 279.845 333.672V324.15C279.845 323.474 279.608 322.727 279.222 322.068Z" fill="url(#paint40_linear_15_37)"/><path d="M205.538 329.728C205.538 329.051 205.301 328.305 204.914 327.637C204.528 326.97 204.001 326.39 203.422 326.056L195.186 321.295C194.606 320.961 194.071 320.926 193.693 321.146C193.307 321.365 193.07 321.84 193.07 322.516V332.038C193.07 332.714 193.307 333.461 193.693 334.12C194.08 334.787 194.606 335.367 195.186 335.701L203.422 340.462C204.001 340.795 204.537 340.83 204.914 340.602C205.301 340.382 205.538 339.908 205.538 339.232V329.71V329.728Z" fill="#CED3F8"/><path d="M221.702 339.065C221.702 338.389 221.465 337.642 221.079 336.983C220.693 336.316 220.166 335.736 219.586 335.402L211.35 330.641C210.771 330.307 210.235 330.272 209.858 330.501C209.471 330.72 209.234 331.195 209.234 331.871V341.393C209.234 342.069 209.471 342.816 209.858 343.474C210.244 344.142 210.771 344.722 211.35 345.055L219.586 349.816C220.166 350.15 220.701 350.185 221.079 349.957C221.465 349.737 221.702 349.263 221.702 348.587V339.065Z" fill="#CED3F8"/><path d="M237.867 348.402C237.867 347.726 237.63 346.979 237.244 346.32C236.857 345.653 236.33 345.073 235.751 344.739L227.515 339.978C226.935 339.645 226.4 339.609 226.022 339.829C225.636 340.049 225.399 340.523 225.399 341.199V350.721C225.399 351.389 225.636 352.144 226.022 352.803C226.409 353.47 226.935 354.05 227.515 354.384L235.751 359.145C236.33 359.479 236.866 359.514 237.244 359.294C237.63 359.074 237.867 358.6 237.867 357.924V348.402Z" fill="#CED3F8"/><path d="M205.538 348.402C205.538 347.726 205.301 346.979 204.914 346.32C204.528 345.653 204.001 345.073 203.422 344.739L195.186 339.978C194.606 339.645 194.071 339.609 193.693 339.829C193.307 340.049 193.07 340.523 193.07 341.199V350.721C193.07 351.389 193.307 352.144 193.693 352.803C194.08 353.47 194.606 354.05 195.186 354.384L203.422 359.145C204.001 359.479 204.537 359.514 204.914 359.294C205.301 359.074 205.538 358.6 205.538 357.924V348.402Z" fill="#CED3F8"/><path d="M221.702 357.739C221.702 357.063 221.465 356.316 221.079 355.658C220.693 354.99 220.166 354.41 219.586 354.077L211.35 349.316C210.771 348.982 210.235 348.947 209.858 349.166C209.471 349.386 209.234 349.86 209.234 350.537V360.05C209.234 360.726 209.471 361.472 209.858 362.131C210.244 362.799 210.771 363.379 211.35 363.712L219.586 368.473C220.166 368.807 220.701 368.842 221.079 368.623C221.465 368.403 221.702 367.929 221.702 367.252V357.739Z" fill="#CED3F8"/><path d="M237.867 367.068C237.867 366.4 237.63 365.645 237.244 364.986C236.857 364.318 236.33 363.739 235.751 363.405L227.515 358.644C226.935 358.31 226.4 358.275 226.022 358.495C225.636 358.714 225.399 359.189 225.399 359.865V369.387C225.399 370.063 225.636 370.81 226.022 371.468C226.409 372.136 226.935 372.716 227.515 373.05L235.751 377.81C236.33 378.144 236.866 378.179 237.244 377.96C237.63 377.74 237.867 377.266 237.867 376.589V367.068Z" fill="#CED3F8"/><path d="M246.902 284.719C246.515 284.052 245.989 283.472 245.409 283.138L237.173 278.377C236.594 278.044 236.058 278.009 235.68 278.237L193.702 302.48C194.088 302.261 194.615 302.287 195.195 302.63L203.43 307.39C204.01 307.724 204.546 308.304 204.923 308.972C205.309 309.639 205.547 310.386 205.547 311.053V320.566C205.547 321.243 205.309 321.708 204.923 321.936L246.902 297.693C247.288 297.473 247.525 296.999 247.525 296.323V286.801C247.525 286.125 247.288 285.378 246.902 284.719Z" fill="url(#paint41_linear_15_37)"/><path d="M221.702 320.391C221.702 319.723 221.465 318.968 221.079 318.309C220.693 317.641 220.166 317.061 219.586 316.728L211.35 311.967C210.771 311.633 210.235 311.598 209.858 311.817C209.471 312.037 209.234 312.511 209.234 313.188V322.709C209.234 323.386 209.471 324.132 209.858 324.791C210.244 325.459 210.771 326.039 211.35 326.372L219.586 331.133C220.166 331.467 220.701 331.502 221.079 331.282C221.465 331.063 221.702 330.589 221.702 329.912V320.391Z" fill="#CED3F8"/><path d="M263.057 294.057C262.671 293.389 262.144 292.809 261.565 292.475L253.329 287.715C252.749 287.381 252.214 287.346 251.836 287.574L209.858 311.817C210.244 311.598 210.771 311.624 211.35 311.967L219.586 316.728C220.166 317.061 220.701 317.641 221.079 318.309C221.465 318.976 221.702 319.723 221.702 320.399V329.912C221.702 330.588 221.465 331.054 221.079 331.282L263.057 307.039C263.444 306.819 263.681 306.345 263.681 305.669V296.147C263.681 295.471 263.444 294.724 263.057 294.065V294.057Z" fill="url(#paint42_linear_15_37)"/><path d="M237.867 329.728C237.867 329.051 237.63 328.305 237.244 327.637C236.857 326.97 236.33 326.39 235.751 326.056L227.515 321.295C226.935 320.961 226.4 320.926 226.022 321.146C225.636 321.365 225.399 321.84 225.399 322.516V332.038C225.399 332.714 225.636 333.461 226.022 334.12C226.409 334.787 226.935 335.367 227.515 335.701L235.751 340.462C236.33 340.795 236.866 340.83 237.244 340.602C237.63 340.382 237.867 339.908 237.867 339.232V329.71V329.728Z" fill="#CED3F8"/><path d="M279.222 303.394C278.836 302.726 278.309 302.146 277.729 301.813L269.493 297.052C268.914 296.718 268.378 296.683 268.001 296.903L226.022 321.146C226.409 320.926 226.935 320.953 227.515 321.295L235.751 326.056C236.33 326.39 236.866 326.97 237.243 327.637C237.63 328.305 237.867 329.051 237.867 329.728V339.241C237.867 339.917 237.63 340.391 237.243 340.611L279.222 316.367C279.608 316.148 279.845 315.674 279.845 314.997V305.476C279.845 304.799 279.608 304.053 279.222 303.394Z" fill="url(#paint43_linear_15_37)"/><path d="M205.538 348.402C205.538 347.058 204.59 345.407 203.422 344.73L195.186 339.97C194.018 339.293 193.07 339.847 193.07 341.191V350.712C193.07 352.056 194.018 353.708 195.186 354.375L203.422 359.136C204.59 359.812 205.538 359.259 205.538 357.915V348.393V348.402Z" fill="#CED3F8"/><path d="M205.538 329.728C205.538 328.384 204.59 326.732 203.422 326.056L195.186 321.295C194.018 320.619 193.07 321.172 193.07 322.516V332.038C193.07 333.382 194.018 335.033 195.186 335.709L203.422 340.47C204.59 341.147 205.538 340.593 205.538 339.249V329.728Z" fill="#CED3F8"/><path d="M221.702 339.065C221.702 337.721 220.754 336.07 219.586 335.393L211.35 330.632C210.183 329.965 209.234 330.509 209.234 331.853V341.375C209.234 342.719 210.183 344.37 211.35 345.047L219.586 349.808C220.754 350.475 221.702 349.931 221.702 348.587V339.065Z" fill="#CED3F8"/><path d="M205.538 311.053C205.538 310.377 205.301 309.63 204.914 308.972C204.528 308.304 204.001 307.724 203.422 307.39L195.186 302.63C194.606 302.296 194.071 302.261 193.693 302.48C193.307 302.7 193.07 303.174 193.07 303.851V313.372C193.07 314.04 193.307 314.795 193.693 315.454C194.08 316.122 194.606 316.701 195.186 317.035L203.422 321.796C204.001 322.13 204.537 322.165 204.914 321.945C205.301 321.726 205.538 321.251 205.538 320.575V311.062V311.053Z" fill="#CED3F8"/><path d="M221.702 357.739C221.702 356.395 220.754 354.744 219.586 354.068L211.35 349.307C210.183 348.63 209.234 349.184 209.234 350.528V360.041C209.234 361.385 210.183 363.036 211.35 363.712L219.586 368.473C220.754 369.149 221.702 368.596 221.702 367.252V357.739Z" fill="#CED3F8"/><path d="M221.702 320.39C221.702 319.047 220.754 317.395 219.586 316.728L211.35 311.967C210.183 311.29 209.234 311.844 209.234 313.188V322.709C209.234 324.053 210.183 325.705 211.35 326.381L219.586 331.142C220.754 331.818 221.702 331.265 221.702 329.921V320.399V320.39Z" fill="#CED3F8"/><path d="M237.867 367.068C237.867 365.724 236.919 364.073 235.751 363.405L227.515 358.644C226.347 357.968 225.399 358.521 225.399 359.865V369.387C225.399 370.731 226.356 372.382 227.515 373.058L235.751 377.819C236.919 378.496 237.867 377.942 237.867 376.598V367.077V367.068Z" fill="#CED3F8"/><path d="M237.867 348.402C237.867 347.058 236.919 345.407 235.751 344.73L227.515 339.97C226.347 339.293 225.399 339.847 225.399 341.191V350.712C225.399 352.056 226.356 353.708 227.515 354.375L235.751 359.136C236.919 359.812 237.867 359.259 237.867 357.915V348.393V348.402Z" fill="#CED3F8"/><path d="M237.867 329.728C237.867 328.384 236.919 326.732 235.751 326.056L227.515 321.295C226.347 320.619 225.399 321.172 225.399 322.516V332.038C225.399 333.382 226.356 335.033 227.515 335.709L235.751 340.47C236.919 341.147 237.867 340.593 237.867 339.249V329.728Z" fill="#CED3F8"/><path d="M232.959 337.475V388.465C232.959 389.783 233.828 391.109 235.575 392.119C237.323 393.129 239.614 393.63 241.906 393.63C244.198 393.63 246.48 393.121 248.228 392.119L280.214 373.647C281.962 372.637 282.84 371.31 282.84 369.993V319.003L232.968 337.475H232.959Z" fill="url(#paint44_linear_15_37)"/><path d="M280.205 315.349C278.406 314.312 276.026 313.803 273.673 313.838C271.452 313.873 269.248 314.374 267.553 315.349L235.566 333.821C233.819 334.831 232.95 336.149 232.95 337.475C232.95 338.801 233.819 340.119 235.566 341.129C237.314 342.139 239.605 342.64 241.897 342.64C244.189 342.64 246.472 342.139 248.219 341.129L280.205 322.657C281.953 321.647 282.831 320.329 282.831 319.003C282.831 317.676 281.953 316.359 280.205 315.349Z" fill="#F6F6FB"/><path d="M248.605 346.549V397.548C248.605 398.865 249.474 400.192 251.222 401.202C252.969 402.212 255.261 402.713 257.552 402.713C259.844 402.713 262.127 402.212 263.874 401.202L295.861 382.729C297.608 381.719 298.486 380.402 298.486 379.075V328.076L248.614 346.549H248.605Z" fill="url(#paint45_linear_15_37)"/><path d="M295.861 324.422C294.061 323.386 291.681 322.876 289.328 322.911C287.107 322.938 284.903 323.447 283.208 324.422L251.231 342.895C249.483 343.905 248.605 345.222 248.614 346.549C248.614 347.875 249.483 349.193 251.231 350.203C252.978 351.213 255.27 351.714 257.561 351.714C259.853 351.714 262.136 351.204 263.883 350.203L295.87 331.73C297.617 330.72 298.495 329.403 298.495 328.076C298.495 326.75 297.617 325.432 295.87 324.422H295.861Z" fill="#F6F6FB"/><path d="M264.252 355.622V406.613C264.252 407.93 265.121 409.257 266.868 410.267C268.616 411.277 270.907 411.777 273.199 411.777C275.49 411.777 277.782 411.277 279.521 410.267L311.507 391.794C313.255 390.784 314.124 389.467 314.124 388.14V337.15L264.252 355.622Z" fill="url(#paint46_linear_15_37)"/><path d="M311.507 333.487C309.707 332.451 307.328 331.941 304.975 331.976C302.753 332.012 300.549 332.512 298.855 333.487L266.868 351.96C265.121 352.97 264.252 354.287 264.252 355.614C264.252 356.94 265.121 358.258 266.868 359.268C268.616 360.278 270.907 360.779 273.199 360.779C275.49 360.779 277.782 360.269 279.521 359.268L311.507 340.795C313.255 339.785 314.124 338.468 314.124 337.141C314.124 335.815 313.246 334.497 311.507 333.487Z" fill="#F6F6FB"/><path d="M468.762 356.624L436.714 375.131C434.949 376.15 433.36 376.247 432.201 375.579C431.051 374.912 430.331 373.48 430.331 371.451V334.436C430.331 332.398 431.042 330.149 432.201 328.147C433.351 326.144 434.949 324.405 436.714 323.386L468.762 304.878C470.527 303.859 472.116 303.763 473.275 304.43C474.425 305.098 475.145 306.521 475.145 308.559V345.574C475.145 347.603 474.434 349.86 473.275 351.863C472.125 353.866 470.527 355.605 468.762 356.624Z" fill="#BBC0E6"/><path d="M430.34 371.451V334.436C430.34 332.398 431.051 330.149 432.21 328.147C433.36 326.144 434.958 324.405 436.723 323.386L468.771 304.878C470.536 303.859 472.125 303.763 473.284 304.43L431.305 280.187C430.155 279.519 428.557 279.616 426.792 280.635L394.744 299.142C392.98 300.161 391.39 301.9 390.231 303.903C389.081 305.906 388.361 308.155 388.361 310.192V347.207C388.361 349.245 389.072 350.668 390.231 351.336L432.21 375.579C431.06 374.912 430.34 373.48 430.34 371.451Z" fill="url(#paint47_linear_15_37)"/><g style="mix-blend-mode:multiply"><path d="M470.36 342.93L435.116 363.282V368.526L470.36 348.174V342.93Z" fill="#DFE4F4"/></g><g style="mix-blend-mode:multiply"><path d="M470.36 332.609L435.116 352.961V358.205L470.36 337.853V332.609Z" fill="#DFE4F4"/></g><g style="mix-blend-mode:multiply"><path d="M470.36 322.279L435.116 342.64V347.884L470.36 327.523V322.279Z" fill="#DFE4F4"/></g><g style="mix-blend-mode:multiply"><path d="M470.36 311.958L435.116 332.31V337.554L470.36 317.202V311.958Z" fill="#DFE4F4"/></g><path d="M394.639 360.392L349.833 334.515L394.639 308.647L439.436 334.515L394.639 360.392Z" fill="#F6F6FB"/><path d="M394.639 412.146L349.833 386.269V334.515L394.639 360.392V412.146Z" fill="#CED3F8"/><path d="M394.639 412.146L439.436 386.269V334.515L394.639 360.392V412.146Z" fill="#BBC0E6"/><g style="mix-blend-mode:multiply"><path d="M394.639 317.307L391.057 315.243L394.639 313.17L398.221 315.243L394.639 317.307Z" fill="#DAE0F5"/><path d="M402.98 322.13L399.398 320.065L402.98 317.992L406.563 320.065L402.98 322.13Z" fill="#DAE0F5"/><path d="M411.322 326.952L407.739 324.879L411.322 322.815L414.904 324.879L411.322 326.952Z" fill="#DAE0F5"/><path d="M419.672 331.766L416.089 329.701L419.672 327.628L423.254 329.701L419.672 331.766Z" fill="#DAE0F5"/><path d="M428.013 336.588L424.431 334.515L428.013 332.451L431.595 334.515L428.013 336.588Z" fill="#DAE0F5"/><path d="M386.298 322.13L382.707 320.065L386.298 317.992L389.872 320.065L386.298 322.13Z" fill="#DAE0F5"/><path d="M394.639 326.952L391.057 324.879L394.639 322.815L398.221 324.879L394.639 326.952Z" fill="#DAE0F5"/><path d="M402.98 331.766L399.398 329.701L402.98 327.628L406.563 329.701L402.98 331.766Z" fill="#DAE0F5"/><path d="M411.322 336.588L407.739 334.515L411.322 332.451L414.904 334.515L411.322 336.588Z" fill="#DAE0F5"/><path d="M419.672 341.41L416.089 339.337L419.672 337.264L423.254 339.337L419.672 341.41Z" fill="#DAE0F5"/><path d="M377.948 326.952L374.365 324.879L377.948 322.815L381.53 324.879L377.948 326.952Z" fill="#DAE0F5"/><path d="M386.298 331.766L382.707 329.701L386.298 327.628L389.872 329.701L386.298 331.766Z" fill="#DAE0F5"/><path d="M394.639 336.588L391.057 334.515L394.639 332.451L398.221 334.515L394.639 336.588Z" fill="#DAE0F5"/><path d="M402.98 341.41L399.398 339.337L402.98 337.264L406.563 339.337L402.98 341.41Z" fill="#DAE0F5"/><path d="M411.322 346.224L407.739 344.16L411.322 342.087L414.904 344.16L411.322 346.224Z" fill="#DAE0F5"/><path d="M369.607 331.766L366.024 329.701L369.607 327.628L373.189 329.701L369.607 331.766Z" fill="#DAE0F5"/><path d="M377.948 336.588L374.365 334.515L377.948 332.451L381.53 334.515L377.948 336.588Z" fill="#DAE0F5"/><path d="M386.298 341.41L382.707 339.337L386.298 337.264L389.872 339.337L386.298 341.41Z" fill="#DAE0F5"/><path d="M394.639 346.224L391.057 344.16L394.639 342.087L398.221 344.16L394.639 346.224Z" fill="#DAE0F5"/><path d="M402.98 351.046L399.398 348.982L402.98 346.909L406.563 348.982L402.98 351.046Z" fill="#DAE0F5"/><path d="M361.265 336.588L357.683 334.515L361.265 332.451L364.848 334.515L361.265 336.588Z" fill="#DAE0F5"/><path d="M369.607 341.41L366.024 339.337L369.607 337.264L373.189 339.337L369.607 341.41Z" fill="#DAE0F5"/><path d="M377.948 346.224L374.365 344.16L377.948 342.087L381.53 344.16L377.948 346.224Z" fill="#DAE0F5"/><path d="M386.298 351.046L382.707 348.982L386.298 346.909L389.872 348.982L386.298 351.046Z" fill="#DAE0F5"/><path d="M394.639 355.868L391.057 353.795L394.639 351.731L398.221 353.795L394.639 355.868Z" fill="#DAE0F5"/><path d="M357.34 347.524L353.758 345.451V341.314L357.34 343.387V347.524Z" fill="#DAE0F5"/><path d="M365.682 352.337L362.099 350.273V346.136L365.682 348.2V352.337Z" fill="#DAE0F5"/><path d="M374.032 357.16L370.449 355.087V350.949L374.032 353.022V357.16Z" fill="#DAE0F5"/><path d="M382.373 361.982L378.791 359.909V355.772L382.373 357.836V361.982Z" fill="#DAE0F5"/><path d="M390.714 366.795L387.132 364.731V360.594L390.714 362.658V366.795Z" fill="#DAE0F5"/><path d="M357.34 357.16L353.758 355.087V350.949L357.34 353.022V357.16Z" fill="#DAE0F5"/><path d="M365.682 361.982L362.099 359.909V355.772L365.682 357.836V361.982Z" fill="#DAE0F5"/><path d="M374.032 366.795L370.449 364.731V360.594L374.032 362.658V366.795Z" fill="#DAE0F5"/><path d="M382.373 371.618L378.791 369.545V365.408L382.373 367.481V371.618Z" fill="#DAE0F5"/><path d="M390.714 376.44L387.132 374.367V370.23L390.714 372.294V376.44Z" fill="#DAE0F5"/><path d="M357.34 366.795L353.758 364.731V360.594L357.34 362.658V366.795Z" fill="#DAE0F5"/><path d="M365.682 371.618L362.099 369.545V365.408L365.682 367.481V371.618Z" fill="#DAE0F5"/><path d="M374.032 376.44L370.449 374.367V370.23L374.032 372.294V376.44Z" fill="#DAE0F5"/><path d="M382.373 381.254L378.791 379.189V375.043L382.373 377.116V381.254Z" fill="#DAE0F5"/><path d="M390.714 386.076L387.132 384.003V379.866L390.714 381.939V386.076Z" fill="#DAE0F5"/><path d="M357.34 376.44L353.758 374.367V370.23L357.34 372.294V376.44Z" fill="#DAE0F5"/><path d="M365.682 381.254L362.099 379.189V375.043L365.682 377.116V381.254Z" fill="#DAE0F5"/><path d="M374.032 386.076L370.449 384.003V379.866L374.032 381.939V386.076Z" fill="#DAE0F5"/><path d="M382.373 390.898L378.791 388.825V384.688L382.373 386.752V390.898Z" fill="#DAE0F5"/><path d="M390.714 395.712L387.132 393.648V389.51L390.714 391.575V395.712Z" fill="#DAE0F5"/><path d="M357.34 386.076L353.758 384.003V379.866L357.34 381.939V386.076Z" fill="#DAE0F5"/><path d="M365.682 390.898L362.099 388.825V384.688L365.682 386.752V390.898Z" fill="#DAE0F5"/><path d="M374.032 395.712L370.449 393.648V389.51L374.032 391.575V395.712Z" fill="#DAE0F5"/><path d="M382.373 400.534L378.791 398.461V394.324L382.373 396.397V400.534Z" fill="#DAE0F5"/><path d="M390.714 405.348L387.132 403.283V399.146L390.714 401.211V405.348Z" fill="#DAE0F5"/><path d="M431.938 347.524L435.52 345.451V341.314L431.938 343.387V347.524Z" fill="#DAE0F5"/><path d="M423.588 352.337L427.17 350.273V346.136L423.588 348.2V352.337Z" fill="#DAE0F5"/><path d="M415.246 357.16L418.829 355.087V350.949L415.246 353.022V357.16Z" fill="#DAE0F5"/><path d="M406.905 361.982L410.488 359.909V355.772L406.905 357.836V361.982Z" fill="#DAE0F5"/><path d="M398.555 366.795L402.138 364.731V360.594L398.555 362.658V366.795Z" fill="#DAE0F5"/><path d="M431.938 357.16L435.52 355.087V350.949L431.938 353.022V357.16Z" fill="#DAE0F5"/><path d="M423.588 361.982L427.17 359.909V355.772L423.588 357.836V361.982Z" fill="#DAE0F5"/><path d="M415.246 366.795L418.829 364.731V360.594L415.246 362.658V366.795Z" fill="#DAE0F5"/><path d="M406.905 371.618L410.488 369.545V365.408L406.905 367.481V371.618Z" fill="#DAE0F5"/><path d="M398.555 376.44L402.138 374.367V370.23L398.555 372.294V376.44Z" fill="#DAE0F5"/><path d="M431.938 366.795L435.52 364.731V360.594L431.938 362.658V366.795Z" fill="#DAE0F5"/><path d="M423.588 371.618L427.17 369.545V365.408L423.588 367.481V371.618Z" fill="#DAE0F5"/><path d="M415.246 376.44L418.829 374.367V370.23L415.246 372.294V376.44Z" fill="#DAE0F5"/><path d="M406.905 381.254L410.488 379.189V375.043L406.905 377.116V381.254Z" fill="#DAE0F5"/><path d="M398.555 386.076L402.138 384.003V379.866L398.555 381.939V386.076Z" fill="#DAE0F5"/><path d="M431.938 376.44L435.52 374.367V370.23L431.938 372.294V376.44Z" fill="#DAE0F5"/><path d="M423.588 381.254L427.17 379.189V375.043L423.588 377.116V381.254Z" fill="#DAE0F5"/><path d="M415.246 386.076L418.829 384.003V379.866L415.246 381.939V386.076Z" fill="#DAE0F5"/><path d="M406.905 390.898L410.488 388.825V384.688L406.905 386.752V390.898Z" fill="#DAE0F5"/><path d="M398.555 395.712L402.138 393.648V389.51L398.555 391.575V395.712Z" fill="#DAE0F5"/><path d="M431.938 386.076L435.52 384.003V379.866L431.938 381.939V386.076Z" fill="#DAE0F5"/><path d="M423.588 390.898L427.17 388.825V384.688L423.588 386.752V390.898Z" fill="#DAE0F5"/><path d="M415.246 395.712L418.829 393.648V389.51L415.246 391.575V395.712Z" fill="#DAE0F5"/><path d="M406.905 400.534L410.488 398.461V394.324L406.905 396.397V400.534Z" fill="#DAE0F5"/><path d="M398.555 405.348L402.138 403.283V399.146L398.555 401.211V405.348Z" fill="#DAE0F5"/></g><path d="M327.751 381.219L295.703 362.711C293.938 361.692 293.06 360.357 293.06 359.022C293.06 357.687 293.938 356.36 295.703 355.341L327.751 336.834C329.516 335.815 331.816 335.305 334.125 335.305C336.434 335.305 338.744 335.815 340.5 336.834L372.548 355.341C374.313 356.36 375.191 357.687 375.191 359.022C375.191 360.357 374.313 361.692 372.548 362.702L340.5 381.21C338.735 382.229 336.434 382.738 334.125 382.738C331.816 382.738 329.507 382.229 327.751 381.21V381.219Z" fill="#F6F6FB"/><path d="M372.548 362.702L340.5 381.21C338.735 382.229 336.434 382.738 334.125 382.738C331.816 382.738 329.507 382.229 327.751 381.21L295.703 362.702C293.938 361.683 293.06 360.348 293.06 359.013V407.509C293.06 408.844 293.938 410.179 295.703 411.189L327.751 429.697C329.516 430.715 331.816 431.225 334.125 431.225C336.434 431.225 338.744 430.715 340.5 429.697L372.548 411.189C374.313 410.17 375.191 408.835 375.191 407.509V359.013C375.191 360.348 374.313 361.683 372.548 362.702Z" fill="url(#paint48_linear_15_37)"/><path d="M322.737 352.443C329.024 348.806 339.227 348.806 345.522 352.443C351.809 356.079 351.809 361.964 345.522 365.601C339.227 369.237 329.033 369.237 322.737 365.601C316.451 361.964 316.451 356.079 322.737 352.443Z" fill="url(#paint49_linear_15_37)"/><path style="mix-blend-mode:multiply" d="M470.711 390.547H445.723L461.589 399.709L445.723 408.87H470.711L486.577 399.709L470.711 390.547Z" fill="url(#paint50_linear_15_37)"/><path d="M445.723 408.87L461.589 399.709V381.104L445.723 390.266V408.87Z" fill="#B9BEE4"/><path d="M445.723 408.87L429.865 399.709V381.104L445.723 390.266V408.87Z" fill="#CCD1F6"/><path d="M445.723 390.266L429.865 381.104L445.723 371.943L461.589 381.104L445.723 390.266Z" fill="#F6F6FB"/><path style="mix-blend-mode:multiply" d="M180.4 369.861H160.337L173.077 377.213L160.337 384.565H180.4L193.131 377.213L180.4 369.861Z" fill="url(#paint51_linear_15_37)"/><path d="M160.337 384.565L173.077 377.213V362.281L160.337 369.633V384.565Z" fill="#B9BEE4"/><path d="M160.337 384.565L147.605 377.213V362.281L160.337 369.633V384.565Z" fill="#CCD1F6"/><path d="M160.337 369.633L147.605 362.281L160.337 354.929L173.077 362.281L160.337 369.633Z" fill="#F6F6FB"/><path style="mix-blend-mode:multiply" d="M570.78 141.824H533.315L557.101 155.562L533.315 169.3H570.78L594.557 155.562L570.78 141.824Z" fill="url(#paint52_linear_15_37)"/><path d="M533.315 169.3L557.101 155.562V127.673L533.315 141.402V169.3Z" fill="#B9BEE4"/><path d="M533.315 169.3L509.538 155.562V127.673L533.315 141.402V169.3Z" fill="#CCD1F6"/><path d="M533.315 141.402L509.538 127.673L533.315 113.944L557.101 127.673L533.315 141.402Z" fill="#F4F4F9"/><path style="mix-blend-mode:multiply" d="M275.833 463.163H236.506L261.468 477.586L236.506 492H275.833L300.795 477.586L275.833 463.163Z" fill="url(#paint53_linear_15_37)"/><path d="M236.506 492L261.468 477.586V448.309L236.506 462.724V492Z" fill="#B9BEE4"/><path d="M236.506 492L211.543 477.586V448.309L236.506 462.724V492Z" fill="#CCD1F6"/><path d="M236.506 462.724L211.543 448.309L236.506 433.895L261.468 448.309L236.506 462.724Z" fill="white"/><path d="M29.8793 436.144L2.11597 420.105L29.8793 404.074L57.6338 420.105L29.8793 436.144Z" stroke="#6B1975" stroke-linecap="round" stroke-linejoin="round"/><path d="M2.11597 420.105V452.174L29.8793 468.214L57.6338 452.174V420.105" stroke="#6B1975" stroke-linecap="round" stroke-linejoin="round"/><path d="M29.8792 436.144V468.214" stroke="#6B1975" stroke-linecap="round" stroke-linejoin="round"/><path d="M27.7632 404.074C27.7632 402.906 28.7115 401.957 29.8792 401.957C31.047 401.957 31.9953 402.906 31.9953 404.074C31.9953 405.242 31.047 406.191 29.8792 406.191C28.7115 406.191 27.7632 405.242 27.7632 404.074Z" fill="#6B1975"/><path d="M2.11605 422.221C3.28471 422.221 4.2321 421.274 4.2321 420.105C4.2321 418.935 3.28471 417.988 2.11605 417.988C0.947388 417.988 0 418.935 0 420.105C0 421.274 0.947388 422.221 2.11605 422.221Z" fill="#6B1975"/><path d="M0 452.174C0 451.006 0.948272 450.057 2.11605 450.057C3.28383 450.057 4.2321 451.006 4.2321 452.174C4.2321 453.343 3.28383 454.291 2.11605 454.291C0.948272 454.291 0 453.343 0 452.174Z" fill="#6B1975"/><path d="M27.7632 468.214C27.7632 467.045 28.7115 466.097 29.8792 466.097C31.047 466.097 31.9953 467.045 31.9953 468.214C31.9953 469.382 31.047 470.33 29.8792 470.33C28.7115 470.33 27.7632 469.382 27.7632 468.214Z" fill="#6B1975"/><path d="M27.7632 436.144C27.7632 434.976 28.7115 434.027 29.8792 434.027C31.047 434.027 31.9953 434.976 31.9953 436.144C31.9953 437.312 31.047 438.261 29.8792 438.261C28.7115 438.261 27.7632 437.312 27.7632 436.144Z" fill="#6B1975"/><path d="M55.5266 420.105C55.5266 418.936 56.4749 417.988 57.6427 417.988C58.8104 417.988 59.7587 418.936 59.7587 420.105C59.7587 421.273 58.8104 422.221 57.6427 422.221C56.4749 422.221 55.5266 421.273 55.5266 420.105Z" fill="#6B1975"/><path d="M55.5266 452.174C55.5266 451.006 56.4749 450.057 57.6427 450.057C58.8104 450.057 59.7587 451.006 59.7587 452.174C59.7587 453.343 58.8104 454.291 57.6427 454.291C56.4749 454.291 55.5266 453.343 55.5266 452.174Z" fill="#6B1975"/><g style="mix-blend-mode:multiply"><path d="M190.181 33.7826L166.817 20.2819L190.181 6.78989L213.545 20.2819L190.181 33.7826Z" stroke="#FFAD02" stroke-linecap="round" stroke-linejoin="round"/><path d="M166.817 20.2819V47.2746L190.181 60.7753L213.545 47.2746V20.2819" stroke="#FFAD02" stroke-linecap="round" stroke-linejoin="round"/><path d="M190.181 33.7826V60.7753" stroke="#FFAD02" stroke-linecap="round" stroke-linejoin="round"/><path d="M188.065 6.78989C188.065 5.62164 189.013 4.67299 190.181 4.67299C191.349 4.67299 192.297 5.62164 192.297 6.78989C192.297 7.95814 191.349 8.9068 190.181 8.9068C189.013 8.9068 188.065 7.95814 188.065 6.78989Z" fill="#FFAD02"/><path d="M164.701 20.2819C164.701 19.1136 165.649 18.1649 166.817 18.1649C167.985 18.1649 168.933 19.1136 168.933 20.2819C168.933 21.4501 167.985 22.3988 166.817 22.3988C165.649 22.3988 164.701 21.4501 164.701 20.2819Z" fill="#FFAD02"/><path d="M166.817 49.3915C167.985 49.3915 168.933 48.4437 168.933 47.2746C168.933 46.1055 167.985 45.1577 166.817 45.1577C165.648 45.1577 164.701 46.1055 164.701 47.2746C164.701 48.4437 165.648 49.3915 166.817 49.3915Z" fill="#FFAD02"/><path d="M188.065 60.7753C188.065 59.6071 189.013 58.6584 190.181 58.6584C191.349 58.6584 192.297 59.6071 192.297 60.7753C192.297 61.9436 191.349 62.8922 190.181 62.8922C189.013 62.8922 188.065 61.9436 188.065 60.7753Z" fill="#FFAD02"/><path d="M188.065 33.7826C188.065 32.6144 189.013 31.6657 190.181 31.6657C191.349 31.6657 192.297 32.6144 192.297 33.7826C192.297 34.9509 191.349 35.8995 190.181 35.8995C189.013 35.8995 188.065 34.9509 188.065 33.7826Z" fill="#FFAD02"/><path d="M211.429 20.2819C211.429 19.1136 212.378 18.1649 213.545 18.1649C214.713 18.1649 215.662 19.1136 215.662 20.2819C215.662 21.4501 214.713 22.3988 213.545 22.3988C212.378 22.3988 211.429 21.4501 211.429 20.2819Z" fill="#FFAD02"/><path d="M211.438 47.2746C211.438 46.1063 212.387 45.1577 213.554 45.1577C214.722 45.1577 215.67 46.1063 215.67 47.2746C215.67 48.4428 214.722 49.3915 213.554 49.3915C212.387 49.3915 211.438 48.4428 211.438 47.2746Z" fill="#FFAD02"/></g><path style="mix-blend-mode:multiply" d="M539.18 235.951L408.872 160.683C405.746 158.873 400.618 158.873 397.493 160.683L208.418 269.892C205.283 271.702 205.283 274.662 208.418 276.462C208.418 276.462 338.796 351.757 338.831 351.775L334.406 353.075C334.406 353.075 342.809 353.11 344.574 353.075C346.339 353.04 348.578 352.601 350.105 351.722L539.18 242.513C542.306 240.703 542.306 237.743 539.18 235.943V235.951Z" fill="url(#paint54_linear_15_37)"/><path d="M196.134 267.793C196.134 271.412 198.698 272.887 201.824 271.078L393.006 160.656C396.14 158.847 398.695 154.411 398.695 150.792V6.53516C398.695 2.91622 396.132 1.44054 393.006 3.25L201.824 113.672C198.698 115.481 196.134 119.917 196.134 123.536V267.793Z" fill="#3A0C44"/><path d="M197.53 111.195L388.712 0.772969C390.302 -0.140549 391.733 -0.21082 392.769 0.412832L396.86 2.78447H396.852C395.833 2.29257 394.49 2.40676 393.015 3.25879L201.833 113.68C198.707 115.49 196.143 119.926 196.143 123.545V267.801C196.143 269.593 196.775 270.867 197.794 271.464L193.702 269.093H193.72C192.578 268.548 191.849 267.239 191.849 265.316V121.059C191.849 117.44 194.413 113.004 197.539 111.195H197.53Z" fill="#6B1975"/><path d="M201.824 262.241L393.006 151.82V9.8291L201.824 120.251V262.241Z" fill="white"/><path d="M331.465 348.455C334.591 350.264 339.719 350.264 342.844 348.455L534.026 238.033C537.152 236.224 537.152 233.263 534.026 231.454L403.709 156.194C400.584 154.385 395.456 154.385 392.33 156.194L201.148 266.616C198.013 268.425 198.013 271.376 201.148 273.186L331.456 348.455H331.465Z" fill="#F6F6FB"/><path d="M392.136 171.856L401.487 166.454L396.808 163.757L387.457 169.15L392.136 171.856Z" fill="#DFE4F4"/><path d="M376.385 180.947L385.736 175.554L381.065 172.848L371.714 178.25L376.385 180.947Z" fill="#DFE4F4"/><path d="M360.642 190.047L369.993 184.645L365.321 181.948L355.97 187.342L360.642 190.047Z" fill="#DFE4F4"/><path d="M344.899 199.138L354.241 193.745L349.57 191.04L340.219 196.442L344.899 199.138Z" fill="#DFE4F4"/><path d="M329.147 208.238L338.498 202.836L333.818 200.14L324.476 205.533L329.147 208.238Z" fill="#DFE4F4"/><path d="M313.404 217.33L322.746 211.928L318.075 209.231L308.724 214.633L313.404 217.33Z" fill="#DFE4F4"/><path d="M297.652 226.43L307.003 221.028L302.323 218.322L292.981 223.724L297.652 226.43Z" fill="#DFE4F4"/><path d="M281.909 235.521L291.251 230.119L286.58 227.422L277.229 232.824L281.909 235.521Z" fill="#DFE4F4"/><path d="M266.157 244.612L275.508 239.219L270.837 236.513L261.486 241.916L266.157 244.612Z" fill="#DFE4F4"/><path d="M250.414 253.712L259.765 248.31L255.085 245.613L245.734 251.016L250.414 253.712Z" fill="#DFE4F4"/><path d="M234.662 262.812L244.013 257.41L239.342 254.705L229.991 260.107L234.662 262.812Z" fill="#DFE4F4"/><path d="M218.919 271.904L228.27 266.501L223.59 263.805L214.239 269.198L218.919 271.904Z" fill="#DFE4F4"/><path d="M400.425 185.26L417.23 175.554L407.879 170.152L391.074 179.858L400.425 185.26Z" fill="#DFE4F4"/><path d="M409.118 197.671L432.324 184.267L422.973 178.865L399.767 192.269L409.118 197.671Z" fill="#DFE4F4"/><path d="M418.469 210.461L448.076 193.367L438.725 187.965L409.118 205.059L418.469 210.461Z" fill="#DFE4F4"/><path d="M450.315 214.08L467.129 204.373L454.468 197.056L437.662 206.763L450.315 214.08Z" fill="#DFE4F4"/><path d="M427.108 227.484L443.923 217.769L431.262 210.461L414.456 220.167L427.108 227.484Z" fill="#DFE4F4"/><path d="M403.902 240.888L420.716 231.173L408.055 223.865L391.25 233.571L403.902 240.888Z" fill="#DFE4F4"/><path d="M323.887 287.1L340.702 277.393L328.04 270.076L311.226 279.791L323.887 287.1Z" fill="#DFE4F4"/><path d="M284.56 309.815L317.53 290.771L304.869 283.463L271.899 302.506L284.56 309.815Z" fill="#DFE4F4"/><path d="M347.058 273.722L397.51 244.586L384.849 237.269L334.397 266.414L347.058 273.722Z" fill="#DFE4F4"/><path d="M380.266 196.898L394.024 188.958L384.673 183.556L370.923 191.496L380.266 196.898Z" fill="#DFE4F4"/><path d="M388.967 209.31L402.725 201.369L393.374 195.967L379.616 203.908L388.967 209.31Z" fill="#DFE4F4"/><path d="M397.888 221.853L411.638 213.913L402.287 208.511L388.537 216.451L397.888 221.853Z" fill="#DFE4F4"/><path d="M377.728 233.492L391.487 225.551L382.136 220.149L368.377 228.09L377.728 233.492Z" fill="#DFE4F4"/><path d="M357.577 245.13L371.336 237.19L361.985 231.788L348.226 239.737L357.577 245.13Z" fill="#DFE4F4"/><path d="M337.418 256.778L351.176 248.828L341.825 243.426L328.075 251.376L337.418 256.778Z" fill="#DFE4F4"/><path d="M317.267 268.416L331.026 260.467L321.675 255.065L307.916 263.014L317.267 268.416Z" fill="#DFE4F4"/><path d="M297.116 280.055L310.875 272.114L301.524 266.703L287.765 274.653L297.116 280.055Z" fill="#DFE4F4"/><path d="M265.077 298.562L290.715 283.753L281.373 278.351L255.726 293.16L265.077 298.562Z" fill="#DFE4F4"/><path d="M368.807 220.948L382.566 213.008L373.215 207.606L359.465 215.555L368.807 220.948Z" fill="#DFE4F4"/><path d="M348.656 232.596L362.415 224.646L353.064 219.244L339.305 227.194L348.656 232.596Z" fill="#DFE4F4"/><path d="M328.506 244.234L342.265 236.285L332.914 230.883L319.155 238.832L328.506 244.234Z" fill="#DFE4F4"/><path d="M308.346 255.873L322.105 247.924L312.754 242.53L299.004 250.471L308.346 255.873Z" fill="#DFE4F4"/><path d="M288.196 267.512L301.954 259.571L292.603 254.169L278.844 262.11L288.196 267.512Z" fill="#DFE4F4"/><path d="M249.755 289.717L281.803 271.21L272.452 265.807L240.404 284.315L249.755 289.717Z" fill="#DFE4F4"/><path d="M360.115 208.537L373.873 200.596L364.522 195.194L350.764 203.144L360.115 208.537Z" fill="#DFE4F4"/><path d="M339.964 220.176L353.714 212.235L344.372 206.833L330.613 214.782L339.964 220.176Z" fill="#DFE4F4"/><path d="M319.804 231.823L333.563 223.873L324.212 218.48L310.462 226.421L319.804 231.823Z" fill="#DFE4F4"/><path d="M299.654 243.461L313.412 235.512L304.061 230.11L290.303 238.059L299.654 243.461Z" fill="#DFE4F4"/><path d="M279.503 255.1L293.262 247.159L283.911 241.757L270.152 249.698L279.503 255.1Z" fill="#DFE4F4"/><path d="M259.343 266.739L273.102 258.798L263.751 253.396L250.001 261.345L259.343 266.739Z" fill="#DFE4F4"/><path d="M234.662 280.995L252.951 270.437L243.6 265.035L225.311 275.601L234.662 280.995Z" fill="#DFE4F4"/><path d="M225.741 257.656L376.824 170.398L372.284 167.78L221.211 255.039L225.741 257.656Z" fill="#6B1975"/><path d="M347.059 284.991L424.15 240.466L472.055 268.135L394.964 312.661L347.059 284.991Z" fill="#DFE4F4"/><path d="M201.156 273.195L331.465 348.463C333.95 349.895 337.69 350.194 340.693 349.342C340.719 349.342 342.563 348.63 342.844 348.463L534.026 238.042C534.246 237.919 534.439 237.787 534.632 237.647C534.641 237.647 534.649 237.629 534.658 237.62C534.711 237.585 534.755 237.541 534.799 237.506C534.913 237.418 535.018 237.33 535.115 237.243C535.167 237.199 535.211 237.146 535.255 237.102C535.378 236.988 535.484 236.865 535.58 236.742C535.589 236.724 535.607 236.707 535.615 236.698C535.615 236.698 535.633 236.68 535.642 236.672C535.756 236.522 535.852 236.382 535.94 236.232C536.195 235.793 536.335 235.328 536.353 234.871H536.362V237.62H536.335C536.353 238.824 535.589 240.027 534.008 240.941L342.826 351.362C338.261 353.628 331.746 353.18 329.805 352.759C327.865 352.337 326.126 351.845 324.089 351.406L201.13 280.389C199.55 279.475 198.768 278.263 198.786 277.06V269.945C198.803 271.122 199.585 272.299 201.13 273.195H201.156Z" fill="url(#paint55_linear_15_37)"/><path style="mix-blend-mode:multiply" d="M403.718 156.194C400.592 154.385 395.464 154.385 392.338 156.194L201.156 266.616C199.576 267.529 198.794 268.733 198.812 269.936H448.576C454.837 269.936 462.519 268.46 465.654 266.651L530.312 229.302L403.727 156.185L403.718 156.194Z" fill="url(#paint56_linear_15_37)"/><path d="M240.782 118.318L261.907 106.126V103.184L240.782 115.384V118.318Z" fill="#C6BDE5"/><path d="M209.384 136.448L234.197 122.122V119.188L209.384 133.505V136.448Z" fill="#C6BDE5"/><path d="M253.715 118.845L261.907 114.12V111.186L253.715 115.911V118.845Z" fill="#FB934B"/><path d="M209.384 144.45L247.139 122.649V119.715L209.384 141.508V144.45Z" fill="#6B1975"/><path d="M234.899 137.722L261.907 122.122V119.188L234.899 134.779V137.722Z" fill="#C6BDE5"/><path d="M209.384 152.452L228.323 141.525V138.583L209.384 149.51V152.452Z" fill="#FFAF6D"/><path d="M249.562 137.256L261.907 130.124V127.19L249.562 134.314V137.256Z" fill="#E1D0F4"/><path d="M209.384 160.445L242.977 141.06V138.117L209.384 157.512V160.445Z" fill="#E1D0F4"/><path d="M253.057 143.238L261.907 138.126V135.183L253.057 140.295V143.238Z" fill="#6B1975"/><path d="M209.384 168.448L246.471 147.041V144.099L209.384 165.514V168.448Z" fill="#6B1975"/><path d="M249.562 153.252L261.907 146.128V143.185L249.562 150.318V153.252Z" fill="#C6BDE5"/><path d="M213.062 174.324L246.656 154.929V151.995L213.062 171.39V174.324Z" fill="#C6BDE5"/><path d="M249.562 161.254L261.907 154.13V151.187L249.562 158.32V161.254Z" fill="#E1D0F4"/><path d="M209.384 184.452L242.977 165.057V162.123L209.384 181.518V184.452Z" fill="#E1D0F4"/><path d="M245.567 171.566L257.912 164.433V161.5L245.567 168.623V171.566Z" fill="#E1D0F4"/><path d="M209.384 192.454L242.977 173.059V170.125L209.384 189.52V192.454Z" fill="#E1D0F4"/><path d="M253.917 174.746L261.907 170.134V167.191L253.917 171.803V174.746Z" fill="#FFAF6D"/><path d="M213.625 198.005L251.573 176.098V173.156L213.625 195.063V198.005Z" fill="#6B1975"/><path d="M249.562 185.26L261.907 178.127V175.194L249.562 182.317V185.26Z" fill="#C6BDE5"/><path d="M232.01 195.379L242.977 189.063V186.121L232.01 192.445V195.379Z" fill="#C6BDE5"/><path d="M249.562 193.262L261.907 186.129V183.196L249.562 190.319V193.262Z" fill="#6B1975"/><path d="M209.384 216.46L242.977 197.065V194.123L209.384 213.517V216.46Z" fill="#6B1975"/><path d="M253.057 199.165L261.907 194.131V191.198L253.057 196.231V199.165Z" fill="#FB934B"/><path d="M221.808 217.268L246.471 202.968V200.034L221.808 214.325V217.268Z" fill="#FB934B"/><path d="M249.562 209.257L261.907 202.134V199.2L249.562 206.323V209.257Z" fill="#E1D0F4"/><path d="M209.384 232.455L242.977 213.061V210.127L209.384 229.522V232.455Z" fill="#E1D0F4"/><path d="M249.562 217.259L261.907 210.136V207.193L249.562 214.326V217.259Z" fill="#C6BDE5"/><path d="M218.928 234.95L242.977 221.063V218.129L218.928 232.007V234.95Z" fill="#C6BDE5"/><path d="M353.424 141.27L365.769 134.147V131.204L353.424 138.337V141.27Z" fill="#E1D0F4"/><path d="M279.099 184.197L346.839 145.074V142.14L279.099 181.263V184.197Z" fill="#E1D0F4"/><path d="M344.644 154.341L365.769 142.14V139.206L344.644 151.407V154.341Z" fill="#C6BDE5"/><path d="M269.634 197.671L338.059 158.144V155.21L269.634 194.729V197.671Z" fill="#C6BDE5"/><path d="M357.577 154.868L365.769 150.142V147.208L357.577 151.934V154.868Z" fill="#FB934B"/><path d="M269.634 205.673L351.001 158.671V155.737L269.634 202.731V205.673Z" fill="#6B1975"/><path d="M371.793 57.9294C371.793 53.9854 374.559 49.1982 377.974 47.2219C381.39 45.2543 384.155 46.853 384.155 50.7881C384.155 54.7233 381.39 59.5192 377.974 61.4956C374.559 63.4632 371.793 61.8645 371.793 57.9294Z" fill="#FFAD02"/><path d="M371.793 81.9356C371.793 77.9916 374.559 73.2044 377.974 71.2281C381.39 69.2605 384.155 70.8592 384.155 74.7943C384.155 78.7295 381.39 83.5254 377.974 85.5018C374.559 87.4694 371.793 85.8707 371.793 81.9356Z" fill="#CED3F8"/><path d="M371.793 105.942C371.793 101.998 374.559 97.2107 377.974 95.2343C381.39 93.2667 384.155 94.8654 384.155 98.8005C384.155 102.736 381.39 107.532 377.974 109.508C374.559 111.476 371.793 109.877 371.793 105.942Z" fill="#E1D0F4"/><path d="M371.793 129.948C371.793 126.004 374.559 121.217 377.974 119.241C381.39 117.273 384.155 118.872 384.155 122.807C384.155 126.742 381.39 131.538 377.974 133.514C374.559 135.482 371.793 133.883 371.793 129.948Z" fill="#E1D0F4"/><path d="M309.918 140.787L313.035 140.559L331.869 79.9856L328.752 80.2052L309.918 140.778V140.787ZM307.389 101.954L292.164 126.926L307.389 134.314L309.69 130.089L297.187 124.019L309.69 103.509L307.389 101.945V101.954ZM336.312 85.2471L334.011 89.4721L346.514 95.5417L334.011 116.052L336.312 117.615L351.528 92.6431L336.312 85.2471Z" fill="#6B1975"/><defs><linearGradient id="paint0_linear_15_37" x1="83.2898" y1="314.523" x2="149.985" y2="314.523" gradientUnits="userSpaceOnUse"><stop stop-color="#CFD5F1"/><stop offset="0.28" stop-color="#E0E4F6"/><stop offset="0.72" stop-color="#F6F7FC"/><stop offset="1" stop-color="white"/></linearGradient><linearGradient id="paint1_linear_15_37" x1="138.105" y1="297.614" x2="107.804" y2="297.614" gradientUnits="userSpaceOnUse"><stop stop-color="#BBC0E6"/><stop offset="1" stop-color="#CED3F8"/></linearGradient><linearGradient id="paint2_linear_15_37" x1="143.294" y1="303.956" x2="102.615" y2="303.956" gradientUnits="userSpaceOnUse"><stop stop-color="#CED3F8"/><stop offset="0.77" stop-color="#BBC0E6"/></linearGradient><linearGradient id="paint3_linear_15_37" x1="104.459" y1="293.846" x2="84.1116" y2="329.079" gradientUnits="userSpaceOnUse"><stop offset="0.49" stop-color="#FFAD02"/><stop offset="1" stop-color="#FC780B"/></linearGradient><linearGradient id="paint4_linear_15_37" x1="646.449" y1="297.43" x2="621.539" y2="297.43" gradientUnits="userSpaceOnUse"><stop stop-color="white"/><stop offset="0.17" stop-color="#EBEEFA"/><stop offset="0.39" stop-color="#DCE1F6"/><stop offset="0.64" stop-color="#D3D9F3"/><stop offset="1" stop-color="#D1D7F3"/></linearGradient><linearGradient id="paint5_linear_15_37" x1="636.817" y1="293.292" x2="621.943" y2="293.292" gradientUnits="userSpaceOnUse"><stop offset="0.6" stop-color="#CED3F8"/><stop offset="0.62" stop-color="#CBD0F5"/><stop offset="0.82" stop-color="#BBC0E6"/></linearGradient><linearGradient id="paint6_linear_15_37" x1="641.839" y1="298.211" x2="616.921" y2="298.211" gradientUnits="userSpaceOnUse"><stop offset="0.18" stop-color="#BBC0E6"/><stop offset="0.51" stop-color="#CBD0F5"/><stop offset="0.56" stop-color="#CED3F8"/></linearGradient><linearGradient id="paint7_linear_15_37" x1="424.756" y1="468.574" x2="438.04" y2="468.574" gradientUnits="userSpaceOnUse"><stop stop-color="#C4CAE8"/><stop offset="0.17" stop-color="#D0D4EC"/><stop offset="0.71" stop-color="#F2F3F9"/><stop offset="1" stop-color="white"/></linearGradient><linearGradient id="paint8_linear_15_37" x1="410.11" y1="461.573" x2="415.238" y2="461.573" gradientUnits="userSpaceOnUse"><stop stop-color="#C4CAE8"/><stop offset="0.17" stop-color="#D0D4EC"/><stop offset="0.71" stop-color="#F2F3F9"/><stop offset="1" stop-color="white"/></linearGradient><linearGradient id="paint9_linear_15_37" x1="163.261" y1="442.749" x2="138.342" y2="442.749" gradientUnits="userSpaceOnUse"><stop stop-color="white"/><stop offset="0.17" stop-color="#EBEEFA"/><stop offset="0.39" stop-color="#DCE1F6"/><stop offset="0.64" stop-color="#D3D9F3"/><stop offset="1" stop-color="#D1D7F3"/></linearGradient><linearGradient id="paint10_linear_15_37" x1="153.62" y1="438.612" x2="138.746" y2="438.612" gradientUnits="userSpaceOnUse"><stop offset="0.6" stop-color="#FC780B"/><stop offset="0.72" stop-color="#F45E11"/><stop offset="0.82" stop-color="#EF4E16"/></linearGradient><linearGradient id="paint11_linear_15_37" x1="158.642" y1="443.522" x2="133.733" y2="443.522" gradientUnits="userSpaceOnUse"><stop offset="0.18" stop-color="#EF4E16"/><stop offset="0.35" stop-color="#F45E11"/><stop offset="0.56" stop-color="#FC780B"/></linearGradient><linearGradient id="paint12_linear_15_37" x1="435.836" y1="128.815" x2="449.13" y2="128.815" gradientUnits="userSpaceOnUse"><stop stop-color="#C4CAE8"/><stop offset="0.17" stop-color="#D0D4EC"/><stop offset="0.71" stop-color="#F2F3F9"/><stop offset="1" stop-color="white"/></linearGradient><linearGradient id="paint13_linear_15_37" x1="421.199" y1="121.823" x2="426.327" y2="121.823" gradientUnits="userSpaceOnUse"><stop stop-color="#C4CAE8"/><stop offset="0.17" stop-color="#D0D4EC"/><stop offset="0.71" stop-color="#F2F3F9"/><stop offset="1" stop-color="white"/></linearGradient><linearGradient id="paint14_linear_15_37" x1="143.646" y1="199.709" x2="176.537" y2="199.709" gradientUnits="userSpaceOnUse"><stop stop-color="#D1D6F0"/><stop offset="0.16" stop-color="#DCE0F3"/><stop offset="0.57" stop-color="#F5F6FB"/><stop offset="0.82" stop-color="white"/></linearGradient><linearGradient id="paint15_linear_15_37" x1="202.693" y1="345.802" x2="326.126" y2="345.802" gradientUnits="userSpaceOnUse"><stop stop-color="#C4CAE8"/><stop offset="1" stop-color="white"/></linearGradient><linearGradient id="paint16_linear_15_37" x1="504.056" y1="249.426" x2="597.103" y2="249.426" gradientUnits="userSpaceOnUse"><stop stop-color="#C4CAE8"/><stop offset="1" stop-color="white"/></linearGradient><linearGradient id="paint17_linear_15_37" x1="621.539" y1="298.949" x2="527.379" y2="298.949" gradientUnits="userSpaceOnUse"><stop stop-color="white"/><stop offset="1" stop-color="#C4CAE8"/></linearGradient><linearGradient id="paint18_linear_15_37" x1="565.916" y1="321.849" x2="467.103" y2="321.849" gradientUnits="userSpaceOnUse"><stop stop-color="white"/><stop offset="1" stop-color="#C4CAE8"/></linearGradient><linearGradient id="paint19_linear_15_37" x1="532.455" y1="361.938" x2="433.65" y2="361.938" gradientUnits="userSpaceOnUse"><stop stop-color="white"/><stop offset="1" stop-color="#C4CAE8"/></linearGradient><linearGradient id="paint20_linear_15_37" x1="493.444" y1="394.14" x2="394.639" y2="394.14" gradientUnits="userSpaceOnUse"><stop stop-color="white"/><stop offset="1" stop-color="#C4CAE8"/></linearGradient><linearGradient id="paint21_linear_15_37" x1="432.939" y1="408.949" x2="334.125" y2="408.949" gradientUnits="userSpaceOnUse"><stop stop-color="white"/><stop offset="1" stop-color="#C4CAE8"/></linearGradient><linearGradient id="paint22_linear_15_37" x1="278.318" y1="333.03" x2="179.504" y2="333.03" gradientUnits="userSpaceOnUse"><stop stop-color="white"/><stop offset="1" stop-color="#C4CAE8"/></linearGradient><linearGradient id="paint23_linear_15_37" x1="372.003" y1="380.428" x2="241.897" y2="380.428" gradientUnits="userSpaceOnUse"><stop stop-color="white"/><stop offset="1" stop-color="#C4CAE8"/></linearGradient><linearGradient id="paint24_linear_15_37" x1="537.96" y1="230.83" x2="439.155" y2="230.83" gradientUnits="userSpaceOnUse"><stop stop-color="white"/><stop offset="1" stop-color="#C4CAE8"/></linearGradient><linearGradient id="paint25_linear_15_37" x1="462.915" y1="239.201" x2="545.045" y2="239.201" gradientUnits="userSpaceOnUse"><stop offset="0.4" stop-color="#CED3F8"/><stop offset="0.55" stop-color="#BDC2E8"/><stop offset="0.57" stop-color="#BBC0E6"/></linearGradient><linearGradient id="paint26_linear_15_37" x1="527.38" y1="290.279" x2="570.728" y2="290.279" gradientUnits="userSpaceOnUse"><stop stop-color="#C4CAE8"/><stop offset="1" stop-color="white"/></linearGradient><linearGradient id="paint27_linear_15_37" x1="487.57" y1="291.307" x2="567.18" y2="291.307" gradientUnits="userSpaceOnUse"><stop offset="0.4" stop-color="#6B1975"/><stop offset="0.47" stop-color="#5A1464"/><stop offset="0.57" stop-color="#3A0C44"/></linearGradient><linearGradient id="paint28_linear_15_37" x1="484.031" y1="308.058" x2="570.728" y2="308.058" gradientUnits="userSpaceOnUse"><stop offset="0.4" stop-color="#CED3F8"/><stop offset="0.55" stop-color="#BDC2E8"/><stop offset="0.57" stop-color="#BBC0E6"/></linearGradient><linearGradient id="paint29_linear_15_37" x1="527.38" y1="268.926" x2="570.728" y2="268.926" gradientUnits="userSpaceOnUse"><stop stop-color="#C4CAE8"/><stop offset="1" stop-color="white"/></linearGradient><linearGradient id="paint30_linear_15_37" x1="-3.50933e-05" y1="269.945" x2="0.877994" y2="269.945" gradientUnits="userSpaceOnUse"><stop offset="0.4" stop-color="#6B1975"/><stop offset="0.47" stop-color="#5A1464"/><stop offset="0.57" stop-color="#3A0C44"/></linearGradient><linearGradient id="paint31_linear_15_37" x1="484.031" y1="286.704" x2="570.728" y2="286.704" gradientUnits="userSpaceOnUse"><stop offset="0.4" stop-color="#CED3F8"/><stop offset="0.55" stop-color="#BDC2E8"/><stop offset="0.57" stop-color="#BBC0E6"/></linearGradient><linearGradient id="paint32_linear_15_37" x1="484.031" y1="265.351" x2="570.728" y2="265.351" gradientUnits="userSpaceOnUse"><stop offset="0.4" stop-color="#CED3F8"/><stop offset="0.55" stop-color="#BDC2E8"/><stop offset="0.57" stop-color="#BBC0E6"/></linearGradient><linearGradient id="paint33_linear_15_37" x1="146.71" y1="336.834" x2="187.8" y2="265.699" gradientUnits="userSpaceOnUse"><stop offset="0.41" stop-color="#CED3F8"/><stop offset="0.62" stop-color="#F6F6FB"/></linearGradient><linearGradient id="paint34_linear_15_37" x1="217.488" y1="326.082" x2="228.725" y2="345.535" gradientUnits="userSpaceOnUse"><stop offset="0.38" stop-color="#F6F6FB"/><stop offset="0.59" stop-color="#BBC0E6"/></linearGradient><linearGradient id="paint35_linear_15_37" x1="217.488" y1="307.408" x2="228.725" y2="326.869" gradientUnits="userSpaceOnUse"><stop offset="0.38" stop-color="#F6F6FB"/><stop offset="0.59" stop-color="#BBC0E6"/></linearGradient><linearGradient id="paint36_linear_15_37" x1="233.652" y1="335.42" x2="244.889" y2="354.872" gradientUnits="userSpaceOnUse"><stop offset="0.38" stop-color="#F6F6FB"/><stop offset="0.59" stop-color="#BBC0E6"/></linearGradient><linearGradient id="paint37_linear_15_37" x1="249.817" y1="344.757" x2="261.054" y2="364.209" gradientUnits="userSpaceOnUse"><stop offset="0.38" stop-color="#F6F6FB"/><stop offset="0.59" stop-color="#BBC0E6"/></linearGradient><linearGradient id="paint38_linear_15_37" x1="233.652" y1="316.745" x2="244.889" y2="336.197" gradientUnits="userSpaceOnUse"><stop offset="0.38" stop-color="#F6F6FB"/><stop offset="0.59" stop-color="#BBC0E6"/></linearGradient><linearGradient id="paint39_linear_15_37" x1="233.652" y1="316.745" x2="244.889" y2="336.197" gradientUnits="userSpaceOnUse"><stop offset="0.38" stop-color="#F6F6FB"/><stop offset="0.59" stop-color="#BBC0E6"/></linearGradient><linearGradient id="paint40_linear_15_37" x1="249.817" y1="326.082" x2="261.054" y2="345.535" gradientUnits="userSpaceOnUse"><stop offset="0.38" stop-color="#F6F6FB"/><stop offset="0.59" stop-color="#BBC0E6"/></linearGradient><linearGradient id="paint41_linear_15_37" x1="217.488" y1="288.742" x2="228.724" y2="308.195" gradientUnits="userSpaceOnUse"><stop offset="0.38" stop-color="#F6F6FB"/><stop offset="0.59" stop-color="#BBC0E6"/></linearGradient><linearGradient id="paint42_linear_15_37" x1="233.652" y1="298.08" x2="244.889" y2="317.532" gradientUnits="userSpaceOnUse"><stop offset="0.38" stop-color="#F6F6FB"/><stop offset="0.59" stop-color="#BBC0E6"/></linearGradient><linearGradient id="paint43_linear_15_37" x1="249.817" y1="307.408" x2="261.054" y2="326.869" gradientUnits="userSpaceOnUse"><stop offset="0.38" stop-color="#F6F6FB"/><stop offset="0.59" stop-color="#BBC0E6"/></linearGradient><linearGradient id="paint44_linear_15_37" x1="232.959" y1="356.316" x2="282.831" y2="356.316" gradientUnits="userSpaceOnUse"><stop stop-color="#CED3F8"/><stop offset="0.29" stop-color="#BDC2E8"/><stop offset="0.33" stop-color="#BBC0E6"/></linearGradient><linearGradient id="paint45_linear_15_37" x1="248.605" y1="365.39" x2="298.477" y2="365.39" gradientUnits="userSpaceOnUse"><stop stop-color="#CED3F8"/><stop offset="0.29" stop-color="#BDC2E8"/><stop offset="0.33" stop-color="#BBC0E6"/></linearGradient><linearGradient id="paint46_linear_15_37" x1="264.252" y1="374.464" x2="314.124" y2="374.464" gradientUnits="userSpaceOnUse"><stop stop-color="#CED3F8"/><stop offset="0.29" stop-color="#BDC2E8"/><stop offset="0.33" stop-color="#BBC0E6"/></linearGradient><linearGradient id="paint47_linear_15_37" x1="400.943" y1="357.528" x2="442.033" y2="286.385" gradientUnits="userSpaceOnUse"><stop offset="0.41" stop-color="#CED3F8"/><stop offset="0.62" stop-color="#F6F6FB"/></linearGradient><linearGradient id="paint48_linear_15_37" x1="293.06" y1="395.123" x2="375.191" y2="395.123" gradientUnits="userSpaceOnUse"><stop offset="0.4" stop-color="#CED3F8"/><stop offset="0.55" stop-color="#BDC2E8"/><stop offset="0.57" stop-color="#BBC0E6"/></linearGradient><linearGradient id="paint49_linear_15_37" x1="318.022" y1="359.022" x2="350.237" y2="359.022" gradientUnits="userSpaceOnUse"><stop stop-color="#A3A9D0"/><stop offset="1" stop-color="#BBC0E6"/></linearGradient><linearGradient id="paint50_linear_15_37" x1="445.723" y1="399.709" x2="486.577" y2="399.709" gradientUnits="userSpaceOnUse"><stop stop-color="#CFD5F1"/><stop offset="0.28" stop-color="#E0E4F6"/><stop offset="0.72" stop-color="#F6F7FC"/><stop offset="1" stop-color="white"/></linearGradient><linearGradient id="paint51_linear_15_37" x1="160.337" y1="377.213" x2="193.131" y2="377.213" gradientUnits="userSpaceOnUse"><stop stop-color="#CFD5F1"/><stop offset="0.28" stop-color="#E0E4F6"/><stop offset="0.72" stop-color="#F6F7FC"/><stop offset="1" stop-color="white"/></linearGradient><linearGradient id="paint52_linear_15_37" x1="533.315" y1="155.562" x2="594.557" y2="155.562" gradientUnits="userSpaceOnUse"><stop stop-color="#CFD5F1"/><stop offset="0.28" stop-color="#E0E4F6"/><stop offset="0.72" stop-color="#F6F7FC"/><stop offset="1" stop-color="white"/></linearGradient><linearGradient id="paint53_linear_15_37" x1="236.506" y1="477.586" x2="300.795" y2="477.586" gradientUnits="userSpaceOnUse"><stop stop-color="#CFD5F1"/><stop offset="0.28" stop-color="#E0E4F6"/><stop offset="0.72" stop-color="#F6F7FC"/><stop offset="1" stop-color="white"/></linearGradient><linearGradient id="paint54_linear_15_37" x1="206.065" y1="256.216" x2="541.525" y2="256.216" gradientUnits="userSpaceOnUse"><stop stop-color="#C4CAE8"/><stop offset="1" stop-color="#F1F1F6"/></linearGradient><linearGradient id="paint55_linear_15_37" x1="198.812" y1="293.977" x2="536.379" y2="293.977" gradientUnits="userSpaceOnUse"><stop offset="0.4" stop-color="#6B1975"/><stop offset="0.47" stop-color="#5A1464"/><stop offset="0.57" stop-color="#3A0C44"/></linearGradient><linearGradient id="paint56_linear_15_37" x1="198.812" y1="212.393" x2="530.303" y2="212.393" gradientUnits="userSpaceOnUse"><stop stop-color="#D1D7F3"/><stop offset="0.41" stop-color="#E4E8F8"/><stop offset="0.85" stop-color="white"/></linearGradient></defs><script xmlns=""/></svg>